<?xml version="1.0" encoding="UTF-8"?>
<svg version="1.1" xmlns="http://www.w3.org/2000/svg" viewBox="80 180 360 150">
<path d="M0 0 C3.74335438 2.43318034 7.01080398 5.50260264 10.3046875 8.50390625 C12.78777441 10.51845737 12.78777441 10.51845737 15.5859375 10.2421875 C18.22268024 9.1587734 19.37197445 8.11649415 21.203125 5.95703125 C25.98825959 0.92331824 31.39394579 -1.84793426 38.390625 -2.23046875 C46.1757803 -1.78289014 52.13916592 0.946199 57.453125 6.64453125 C62.72745016 13.1842691 63.7357348 19.02005419 62.953125 27.26953125 C61.84795945 33.16739492 58.65432372 38.16150722 54.61328125 42.52734375 C50.04164564 45.52139585 45.51355578 45.16931837 40.24609375 45.07421875 C38.61607422 44.67589844 38.61607422 44.67589844 36.953125 44.26953125 C35.963125 42.61953125 34.973125 40.96953125 33.953125 39.26953125 C31.313125 43.88953125 28.673125 48.50953125 25.953125 53.26953125 C24.633125 53.26953125 23.313125 53.26953125 21.953125 53.26953125 C21.623125 52.27953125 21.293125 51.28953125 20.953125 50.26953125 C19.963125 50.26953125 18.973125 50.26953125 17.953125 50.26953125 C17.293125 51.25953125 16.633125 52.24953125 15.953125 53.26953125 C14.1875 53.1796875 14.1875 53.1796875 11.953125 52.26953125 C10.52053892 50.07697573 9.34830226 48.03916263 8.203125 45.70703125 C7.72939453 44.78374023 7.72939453 44.78374023 7.24609375 43.84179688 C6.46950611 42.32392104 5.70966939 40.79749591 4.953125 39.26953125 C4.28023437 40.47996094 4.28023437 40.47996094 3.59375 41.71484375 C1.953125 44.26953125 1.953125 44.26953125 -0.296875 45.14453125 C-3.65461737 45.2971559 -6.7430308 44.85256258 -10.046875 44.26953125 C-10.541875 41.79453125 -10.541875 41.79453125 -11.046875 39.26953125 C-8.28424015 38.70075349 -5.7509944 38.25769603 -2.921875 38.14453125 C-1.973125 37.85578125 -1.024375 37.56703125 -0.046875 37.26953125 C1.68380771 33.81471425 1.68380771 33.81471425 2.953125 30.26953125 C3.943125 29.93953125 4.933125 29.60953125 5.953125 29.26953125 C8.35912666 33.01642712 10.67605998 36.70513954 12.640625 40.70703125 C13.69383301 43.38663738 13.69383301 43.38663738 15.953125 44.26953125 C16.613125 42.61953125 17.273125 40.96953125 17.953125 39.26953125 C19.273125 39.26953125 20.593125 39.26953125 21.953125 39.26953125 C22.448125 41.24953125 22.448125 41.24953125 22.953125 43.26953125 C23.613125 43.26953125 24.273125 43.26953125 24.953125 43.26953125 C25.53320312 42.00496094 25.53320312 42.00496094 26.125 40.71484375 C26.64578125 39.61914062 27.1665625 38.5234375 27.703125 37.39453125 C28.21359375 36.30398437 28.7240625 35.2134375 29.25 34.08984375 C30.97850309 31.22750606 31.85311681 30.33431667 34.953125 29.26953125 C37.92178009 31.81409276 39.3151001 34.7594779 40.953125 38.26953125 C45.29227164 38.70344591 47.44076449 38.58483003 51.203125 36.26953125 C55.17321799 32.46973716 56.84431736 28.2028038 57.046875 22.7421875 C56.71786421 17.27238317 55.72290769 13.43613317 51.953125 9.26953125 C46.88458227 5.25693493 42.45994313 4.46986405 36.01953125 4.6875 C29.16353768 5.98882872 24.28221208 10.75836716 19.640625 15.70703125 C16.953125 18.26953125 16.953125 18.26953125 14.59375 18.73046875 C10.84863073 18.07673491 9.54026769 16.24490682 7.015625 13.45703125 C2.84821374 8.88014376 -0.71348998 5.84983714 -6.94140625 4.765625 C-13.44786266 4.63497326 -18.03273801 5.32836091 -23.26171875 9.37109375 C-26.91620365 13.2574825 -27.85344918 17.35326511 -28.19921875 22.56640625 C-27.72120741 34.62060538 -15.18501761 43.5541493 -7.046875 51.26953125 C-5.62243637 52.53439521 -4.18793625 53.78824496 -2.734375 55.01953125 C1.02769621 58.20894045 4.19584207 61.80936046 7.4453125 65.51171875 C10.78038703 69.17926176 14.30365314 72.63941736 17.87988281 76.07104492 C22.53968291 80.62030232 25.41478838 84.5181061 26.015625 91.15234375 C25.86388477 96.29254399 23.86590055 100.12856181 20.703125 104.08203125 C16.39892279 107.50582846 12.4679843 109.64342768 6.890625 109.20703125 C1.56008636 108.20819227 -1.6839328 105.80896956 -5.21875 101.81640625 C-9.86922091 96.39173337 -9.86922091 96.39173337 -16.18359375 93.50390625 C-19.31678734 93.28798154 -19.31678734 93.28798154 -22.28515625 93.4296875 C-25.65867449 93.23405207 -27.3442755 92.25330463 -30.046875 90.26953125 C-33.11047465 85.98049174 -33.51853748 82.46422841 -32.765625 77.390625 C-31.33136493 73.15799883 -27.94340014 71.21779382 -24.046875 69.26953125 C-19.27431577 68.87181798 -16.96204828 68.79499696 -12.671875 71.01953125 C-9.63289563 73.62437071 -8.23304518 75.47724886 -7.81640625 79.48828125 C-7.83767578 80.6175 -7.83767578 80.6175 -7.859375 81.76953125 C-7.86582031 82.52234375 -7.87226562 83.27515625 -7.87890625 84.05078125 C-8.046875 86.26953125 -8.046875 86.26953125 -8.62109375 88.36328125 C-9.26470922 90.47507108 -9.26470922 90.47507108 -8.046875 93.26953125 C-6.71354167 93.60286458 -5.38020833 93.93619792 -4.046875 94.26953125 C-2.625 95.828125 -2.625 95.828125 -1.296875 97.70703125 C1.46356241 101.08787 3.69189274 102.50108548 7.99609375 103.25 C11.34024169 103.28337473 13.28297841 102.19452065 15.953125 100.26953125 C18.69796636 97.06721633 19.78172445 93.77454214 19.62890625 89.51171875 C18.10009774 84.43925584 13.65207837 80.87379142 9.953125 77.26953125 C8.74479167 76.06119792 7.53645833 74.85286458 6.328125 73.64453125 C5.76480469 73.09152344 5.20148438 72.53851563 4.62109375 71.96875 C2.87785644 70.19285251 1.25904464 68.34707376 -0.359375 66.45703125 C-5.87704531 60.07335888 -11.85070263 54.09970156 -18.234375 48.58203125 C-25.55988615 42.24805393 -33.19413524 35.58374395 -34.25 25.2890625 C-34.43481778 16.58722534 -32.11297829 10.43496383 -26.12890625 4.03515625 C-18.97643804 -2.0303515 -8.63601513 -4.0960539 0 0 Z M-25.421875 75.89453125 C-27.23992584 78.55168248 -27.96829528 80.04776263 -28.046875 83.26953125 C-26.29573975 86.98214352 -26.29573975 86.98214352 -23.046875 89.26953125 C-20.08898931 89.68628645 -20.08898931 89.68628645 -17.046875 89.26953125 C-14.27522993 86.68903412 -13.23039205 84.03163087 -13.046875 80.26953125 C-13.89433134 77.41251418 -13.89433134 77.41251418 -16.046875 75.26953125 C-19.98548423 74.05214294 -21.94389165 73.51485843 -25.421875 75.89453125 Z " fill="#D34B50" transform="translate(122.046875,198.73046875)"/>
<path d="M0 0 C3 0.125 3 0.125 4 1.125 C4.39969412 3.64861613 4.75042817 6.15320241 5.0625 8.6875 C5.371875 11.141875 5.68125 13.59625 6 16.125 C8.64 10.845 11.28 5.565 14 0.125 C29.18 0.125 44.36 0.125 60 0.125 C60 2.105 60 4.085 60 6.125 C57.45299007 7.72867292 56.38598454 8.18942578 53.35546875 7.68359375 C52.57816406 7.49925781 51.80085938 7.31492188 51 7.125 C50.91435791 7.71514893 50.82871582 8.30529785 50.74047852 8.91333008 C50.35064401 11.58847393 49.95661986 14.26298429 49.5625 16.9375 C49.42779297 17.86626953 49.29308594 18.79503906 49.15429688 19.75195312 C49.02216797 20.64462891 48.89003906 21.53730469 48.75390625 22.45703125 C48.57323608 23.69030151 48.57323608 23.69030151 48.38891602 24.94848633 C48 27.125 48 27.125 47 30.125 C45.02 30.125 43.04 30.125 41 30.125 C39.36792113 25.08505833 40.72383458 20.78892098 41.9375 15.8125 C42.13279297 14.97654297 42.32808594 14.14058594 42.52929688 13.27929688 C43.0104231 11.22570934 43.50398755 9.17504289 44 7.125 C40.04 7.125 36.08 7.125 32 7.125 C31.80444068 9.85380461 31.61829553 12.58271069 31.4375 15.3125 C31.38142578 16.08142578 31.32535156 16.85035156 31.26757812 17.64257812 C31.00609642 21.70426057 31.07653607 25.12849642 32 29.125 C31 30.125 31 30.125 27.83984375 30.22265625 C26.55207031 30.21105469 25.26429688 30.19945312 23.9375 30.1875 C22.64714844 30.17847656 21.35679687 30.16945312 20.02734375 30.16015625 C19.02832031 30.14855469 18.02929688 30.13695312 17 30.125 C16.67 29.135 16.34 28.145 16 27.125 C16.78375 26.50625 17.5675 25.8875 18.375 25.25 C22.860697 20.77701036 23.08809558 14.0523254 23.125 8 C23.08375 7.05125 23.0425 6.1025 23 5.125 C20.67445527 5.81173804 19.30772932 6.65721649 17.96826172 8.69335938 C16.90120827 10.73088626 15.90738126 12.78947498 14.9375 14.875 C14.42993164 15.93074219 14.42993164 15.93074219 13.91210938 17.0078125 C12.39105045 20.173498 10.90423581 23.34170349 9.484375 26.5546875 C8 29.125 8 29.125 4.3125 30.5 C3.219375 30.70625 2.12625 30.9125 1 31.125 C-1.69756364 28.42743636 -1.49036027 26.60932063 -1.88671875 22.83984375 C-2.0868457 20.96135742 -2.0868457 20.96135742 -2.29101562 19.04492188 C-2.35587158 18.39193115 -2.42072754 17.73894043 -2.48754883 17.06616211 C-2.68719093 15.06559707 -2.90208372 13.06710196 -3.11914062 11.06835938 C-3.86598932 3.85625333 -3.86598932 3.85625333 -4 1.125 C-3 0.125 -3 0.125 0 0 Z " fill="#CF3A3F" transform="translate(203,217.875)"/>
<path d="M0 0 C4.91527611 4.04144925 9.40995401 8.36421447 13.87573242 12.89746094 C16.53298093 15.57974776 19.23780205 18.13056879 22.125 20.5625 C25.94384881 23.82475546 29.18295167 27.47173413 32.4921875 31.2421875 C35.82726203 34.90973051 39.35052814 38.36988611 42.92675781 41.80151367 C47.58655791 46.35077107 50.46166338 50.24857485 51.0625 56.8828125 C50.91075977 62.02301274 48.91277555 65.85903056 45.75 69.8125 C41.44579779 73.23629721 37.5148593 75.37389643 31.9375 74.9375 C26.60696136 73.93866102 23.3629422 71.53943831 19.828125 67.546875 C15.17765409 62.12220212 15.17765409 62.12220212 8.86328125 59.234375 C5.73008766 59.01845029 5.73008766 59.01845029 2.76171875 59.16015625 C-0.61179949 58.96452082 -2.2974005 57.98377338 -5 56 C-8.06359965 51.71096049 -8.47166248 48.19469716 -7.71875 43.12109375 C-6.28448993 38.88846758 -2.89652514 36.94826257 1 35 C5.77255923 34.60228673 8.08482672 34.52546571 12.375 36.75 C15.41397937 39.35483946 16.81382982 41.20771761 17.23046875 45.21875 C17.20919922 46.34796875 17.20919922 46.34796875 17.1875 47.5 C17.18105469 48.2528125 17.17460938 49.005625 17.16796875 49.78125 C17 52 17 52 16.42578125 54.09375 C15.78216578 56.20553983 15.78216578 56.20553983 17 59 C18.33333333 59.33333333 19.66666667 59.66666667 21 60 C22.421875 61.55859375 22.421875 61.55859375 23.75 63.4375 C26.52117356 66.83848573 28.72909917 68.14762389 33.03125 68.93359375 C35.9881465 69.03333034 38.33152473 68.20081387 41 67 C40.34 68.32 39.68 69.64 39 71 C39.94875 70.2575 40.8975 69.515 41.875 68.75 C42.40867188 68.33234375 42.94234375 67.9146875 43.4921875 67.484375 C46.76611651 64.26133608 47.42081402 60.86717725 47.6875 56.375 C47.54498989 51.20963084 46.61143444 48.88551152 43.03149414 45.17773438 C42.21246613 44.31865479 41.39343811 43.4595752 40.54959106 42.57446289 C39.70822601 41.72489014 38.86686096 40.87531738 38 40 C36.87294144 38.84649048 36.87294144 38.84649048 35.72311401 37.66967773 C33.43670293 35.3542393 31.12637893 33.06526045 28.80859375 30.78125 C27.10599426 29.09127229 25.40352384 27.40116455 23.70117188 25.7109375 C21.04961874 23.08438267 18.39646826 20.45947721 15.7409668 17.83691406 C13.15504205 15.28098954 10.57520704 12.71904489 7.99609375 10.15625 C6.79163857 8.97198425 6.79163857 8.97198425 5.56285095 7.76379395 C4.8311116 7.03543335 4.09937225 6.30707275 3.34545898 5.55664062 C2.37357887 4.59594666 2.37357887 4.59594666 1.38206482 3.61584473 C0 2 0 2 0 0 Z M-0.375 41.625 C-2.19305084 44.28215123 -2.92142028 45.77823138 -3 49 C-1.24886475 52.71261227 -1.24886475 52.71261227 2 55 C4.95788569 55.4167552 4.95788569 55.4167552 8 55 C10.77164507 52.41950287 11.81648295 49.76209962 12 46 C11.15254366 43.14298293 11.15254366 43.14298293 9 41 C5.06139077 39.78261169 3.10298335 39.24532718 -0.375 41.625 Z " fill="#DA696D" transform="translate(97,233)"/>
<path d="M0 0 C1.134375 0.020625 2.26875 0.04125 3.4375 0.0625 C3.94117757 1.51956726 4.44032556 2.97820096 4.9375 4.4375 C5.2159375 5.24960937 5.494375 6.06171875 5.78125 6.8984375 C6.4375 9.0625 6.4375 9.0625 6.4375 11.0625 C9.74573705 7.93308657 12.1506982 4.98273166 14.4375 1.0625 C17.14629335 -0.29189668 19.44683268 -0.00251451 22.4375 0.0625 C22.74737436 6.56986147 22.17340171 12.60535934 21.0625 19 C20.87337036 20.11846313 20.87337036 20.11846313 20.68041992 21.25952148 C20.03941527 24.7692519 19.44142592 27.05661111 17.4375 30.0625 C14.3125 30.25 14.3125 30.25 11.4375 30.0625 C11.34801442 25.58822076 11.58006349 21.45686211 12.4375 17.0625 C12.12296875 17.5678125 11.8084375 18.073125 11.484375 18.59375 C11.05640625 19.2434375 10.6284375 19.893125 10.1875 20.5625 C9.76984375 21.2121875 9.3521875 21.861875 8.921875 22.53125 C8.43203125 23.0365625 7.9421875 23.541875 7.4375 24.0625 C6.1175 24.0625 4.7975 24.0625 3.4375 24.0625 C2.4475 21.4225 1.4575 18.7825 0.4375 16.0625 C0.30472656 16.90554688 0.17195313 17.74859375 0.03515625 18.6171875 C-0.14144531 19.71289062 -0.31804687 20.80859375 -0.5 21.9375 C-0.67402344 23.02804687 -0.84804688 24.11859375 -1.02734375 25.2421875 C-1.5625 28.0625 -1.5625 28.0625 -2.5625 30.0625 C-4.5425 30.0625 -6.5225 30.0625 -8.5625 30.0625 C-9.78335918 26.49625007 -9.34874103 23.89645113 -8.6015625 20.23828125 C-8.37726563 19.12775391 -8.15296875 18.01722656 -7.921875 16.87304688 C-7.67953125 15.71869141 -7.4371875 14.56433594 -7.1875 13.375 C-6.95289063 12.20904297 -6.71828125 11.04308594 -6.4765625 9.84179688 C-4.47500316 0.07850883 -4.47500316 0.07850883 0 0 Z " fill="#D03D42" transform="translate(310.5625,255.9375)"/>
<path d="M0 0 C2.41696872 -0.05411124 4.83271787 -0.09372278 7.25 -0.125 C7.93191406 -0.14175781 8.61382812 -0.15851563 9.31640625 -0.17578125 C13.0344565 -0.21187883 15.90964595 -0.19120458 19 2 C20.65230624 4.83252498 21.00731006 6.65642719 20.9375 9.9375 C20 13 20 13 17.375 15.6875 C15.33224144 17.87073479 15.00864745 18.76844039 14.89453125 21.82421875 C15.15900418 24.57826353 15.51071454 27.27744133 16 30 C14.02 30 12.04 30 10 30 C8.68 26.7 7.36 23.4 6 20 C5.34 20 4.68 20 4 20 C3.86722656 20.63808594 3.73445313 21.27617187 3.59765625 21.93359375 C3.42105469 22.75988281 3.24445313 23.58617187 3.0625 24.4375 C2.88847656 25.26121094 2.71445312 26.08492188 2.53515625 26.93359375 C2 29 2 29 1 30 C-0.99958364 30.04080783 -3.00045254 30.04254356 -5 30 C-6.18778316 26.49671279 -5.80783526 24.01551001 -5.0390625 20.4296875 C-4.81476563 19.36878906 -4.59046875 18.30789063 -4.359375 17.21484375 C-3.99585938 15.56162109 -3.99585938 15.56162109 -3.625 13.875 C-3.39039063 12.76511719 -3.15578125 11.65523438 -2.9140625 10.51171875 C-1.15646655 2.3129331 -1.15646655 2.3129331 0 0 Z M6 8 C5.95936168 9.66617115 5.957279 11.33388095 6 13 C7.65 13 9.3 13 11 13 C11.33 11.02 11.66 9.04 12 7 C8.71069596 6.63314303 8.71069596 6.63314303 6 8 Z " fill="#D03F44" transform="translate(281,256)"/>
<path d="M0 0 C0.78375 0.04125 1.5675 0.0825 2.375 0.125 C3.32524979 3.82041586 3.32524979 6.42958414 2.375 10.125 C5.08379335 11.47939668 7.38433268 11.19001451 10.375 11.125 C10.50777344 10.41472656 10.64054687 9.70445312 10.77734375 8.97265625 C10.95394531 8.05355469 11.13054687 7.13445312 11.3125 6.1875 C11.57353516 4.81271484 11.57353516 4.81271484 11.83984375 3.41015625 C12.375 1.125 12.375 1.125 13.375 0.125 C15.875 0 15.875 0 18.375 0.125 C19.375 1.125 19.375 1.125 19.39453125 3.28515625 C17.79528986 25.70471014 17.79528986 25.70471014 13.375 30.125 C11.37541636 30.16580783 9.37454746 30.16754356 7.375 30.125 C6.00067543 26.30743176 6.69524961 23.05244671 7.375 19.125 C5.065 19.455 2.755 19.785 0.375 20.125 C0.24222656 20.76308594 0.10945312 21.40117187 -0.02734375 22.05859375 C-0.20394531 22.88488281 -0.38054687 23.71117187 -0.5625 24.5625 C-0.73652344 25.38621094 -0.91054687 26.20992188 -1.08984375 27.05859375 C-1.625 29.125 -1.625 29.125 -2.625 30.125 C-4.62458364 30.16580783 -6.62545254 30.16754356 -8.625 30.125 C-9.61768642 26.28241296 -9.54345185 23.5406649 -8.69921875 19.67578125 C-8.47943359 18.66322266 -8.25964844 17.65066406 -8.03320312 16.60742188 C-7.79537109 15.56134766 -7.55753906 14.51527344 -7.3125 13.4375 C-7.08626953 12.37982422 -6.86003906 11.32214844 -6.62695312 10.23242188 C-4.40467299 0.20974633 -4.40467299 0.20974633 0 0 Z " fill="#CE363C" transform="translate(230.625,255.875)"/>
<path d="M0 0 C1.23234375 -0.02578125 2.4646875 -0.0515625 3.734375 -0.078125 C7.74258374 0.29597448 10.38528735 1.38528735 13.25 4.25 C13.6021676 9.53251395 13.74588279 12.97725437 10.25 17.25 C9.26 17.58 8.27 17.91 7.25 18.25 C7.58 19.301875 7.91 20.35375 8.25 21.4375 C9.08966782 24.63873357 9.44750904 26.9911008 9.25 30.25 C6.375 30.4375 6.375 30.4375 3.25 30.25 C1.06024227 26.96536341 0.25193437 24.04303725 -0.75 20.25 C-2.94117773 21.07201984 -2.94117773 21.07201984 -3.6015625 23.31640625 C-3.85679687 24.14011719 -4.11203125 24.96382812 -4.375 25.8125 C-4.63539063 26.63878906 -4.89578125 27.46507812 -5.1640625 28.31640625 C-5.35742188 28.95449219 -5.55078125 29.59257812 -5.75 30.25 C-8.125 30.875 -8.125 30.875 -10.75 31.25 C-11.41 30.59 -12.07 29.93 -12.75 29.25 C-12.61328125 26.9921875 -12.61328125 26.9921875 -12.0625 24.125 C-11.86398437 23.06410156 -11.66546875 22.00320312 -11.4609375 20.91015625 C-11.22632813 19.70230469 -10.99171875 18.49445313 -10.75 17.25 C-10.49015763 15.81156312 -10.23242557 14.37274378 -9.9765625 12.93359375 C-9.71405982 11.47646906 -9.45104424 10.01943667 -9.1875 8.5625 C-9.06093018 7.85528809 -8.93436035 7.14807617 -8.80395508 6.41943359 C-7.56311198 -0.2600158 -6.72757163 0.0837457 0 0 Z M-1.75 8.25 C-1.79063832 9.91617115 -1.792721 11.58388095 -1.75 13.25 C0.23 13.25 2.21 13.25 4.25 13.25 C4.63218767 11.59385343 4.96395102 9.92542976 5.25 8.25 C4.1904123 6.96677453 4.1904123 6.96677453 1.75 7.125 C-0.6904123 6.96677453 -0.6904123 6.96677453 -1.75 8.25 Z " fill="#D03E44" transform="translate(371.75,217.75)"/>
<path d="M0 0 C3.34625024 2.52676039 4.67977847 4.03933542 6 8 C6.45267285 14.6769245 5.93293057 20.50625067 1.48828125 25.80078125 C-2.37135074 29.43490665 -5.54325663 31.09921352 -11 31 C-15.27193278 29.68555914 -16.62964468 28.64194923 -18.875 24.75 C-20.96394171 17.78686095 -20.37046038 11.43998679 -17 5 C-12.57216859 -0.30109815 -6.60747822 -1.41988111 0 0 Z M-9 7 C-11.91057514 9.91057514 -12.53707412 12.97026817 -13 17 C-12.72153393 20.35789057 -12.72153393 20.35789057 -12 23 C-10.27523089 23.95502158 -10.27523089 23.95502158 -8 24 C-4.91217927 21.91751625 -3.31159627 20.18784276 -2.35546875 16.54296875 C-1.47714621 11.57838265 -1.47714621 11.57838265 -3.375 7.1953125 C-5.66436109 5.51131132 -6.49120041 5.7456002 -9 7 Z " fill="#CE3339" transform="translate(353,218)"/>
<path d="M0 0 C2.97 0 5.94 0 9 0 C9.50710281 3.33238991 10.00586235 6.66568377 10.5 10 C10.64308594 10.93457031 10.78617187 11.86914062 10.93359375 12.83203125 C11.73309765 18.27627211 12.35020336 23.49680435 12 29 C11.34 29.66 10.68 30.32 10 31 C7.375 30.625 7.375 30.625 5 30 C4.34 28.02 3.68 26.04 3 24 C0.16926564 23.49830585 0.16926564 23.49830585 -3 24 C-4.38123963 25.96722008 -5.71488126 27.96868328 -7 30 C-9.625 30.9375 -9.625 30.9375 -12 31 C-12.66 30.67 -13.32 30.34 -14 30 C-13.58024713 23.79584786 -10.5823298 19.14723143 -7.5625 13.875 C-6.56333144 12.10182762 -5.56461641 10.32839959 -4.56640625 8.5546875 C-4.12240479 7.77593262 -3.67840332 6.99717773 -3.22094727 6.19482422 C-2.08953767 4.16095655 -1.04083672 2.08167344 0 0 Z M2 11 C1.34 12.65 0.68 14.3 0 16 C0.99 16 1.98 16 3 16 C3 14.35 3 12.7 3 11 C2.67 11 2.34 11 2 11 Z " fill="#CD3338" transform="translate(272,218)"/>
<path d="M0 0 C0.74886475 0.00523682 1.49772949 0.01047363 2.26928711 0.01586914 C3.07817383 0.0190918 3.88706055 0.02231445 4.72045898 0.02563477 C5.5705957 0.03401367 6.42073242 0.04239258 7.29663086 0.05102539 C8.15063477 0.05553711 9.00463867 0.06004883 9.88452148 0.06469727 C12.00108749 0.07652166 14.11761771 0.0944577 16.23413086 0.11352539 C17.35913086 4.86352539 17.35913086 4.86352539 16.23413086 7.11352539 C12.27413086 7.11352539 8.31413086 7.11352539 4.23413086 7.11352539 C4.23413086 8.76352539 4.23413086 10.41352539 4.23413086 12.11352539 C5.32725586 11.88665039 6.42038086 11.65977539 7.54663086 11.42602539 C11.23413086 11.11352539 11.23413086 11.11352539 13.17163086 12.55102539 C13.52225586 13.06665039 13.87288086 13.58227539 14.23413086 14.11352539 C13.35913086 16.61352539 13.35913086 16.61352539 11.23413086 19.11352539 C7.86705077 19.57439787 4.61298697 19.39879467 1.23413086 19.11352539 C1.56413086 20.43352539 1.89413086 21.75352539 2.23413086 23.11352539 C5.53413086 23.11352539 8.83413086 23.11352539 12.23413086 23.11352539 C13.35913086 27.86352539 13.35913086 27.86352539 12.23413086 30.11352539 C5.63413086 30.11352539 -0.96586914 30.11352539 -7.76586914 30.11352539 C-7.31826685 23.28759053 -6.1674718 16.73487125 -4.76586914 10.05102539 C-4.58765625 9.193396 -4.40944336 8.3357666 -4.22583008 7.45214844 C-2.6644483 0.17129386 -2.6644483 0.17129386 0 0 Z " fill="#CE363C" transform="translate(392.765869140625,217.886474609375)"/>
<path d="M0 0 C1.5575026 5.01934661 2.51965562 9.84760704 3.125 15.0625 C3.21136719 15.74376953 3.29773438 16.42503906 3.38671875 17.12695312 C3.86797673 21.10306073 4.18284277 24.99574329 4 29 C3 30 3 30 -0.0625 30.0625 C-1.031875 30.041875 -2.00125 30.02125 -3 30 C-3.66 28.02 -4.32 26.04 -5 24 C-7.83073436 23.49830585 -7.83073436 23.49830585 -11 24 C-11.66 24.99 -12.32 25.98 -13 27 C-13.66 27.99 -14.32 28.98 -15 30 C-18.25 30.375 -18.25 30.375 -21 30 C-22 27 -22 27 -21.36547852 25.26904297 C-20.84618774 24.32762451 -20.84618774 24.32762451 -20.31640625 23.3671875 C-18.77215488 20.46715378 -17.314047 17.56663785 -15.96484375 14.5703125 C-15.63033203 13.838125 -15.29582031 13.1059375 -14.95117188 12.3515625 C-14.2658769 10.84629029 -13.586334 9.33838815 -12.91210938 7.828125 C-12.57888672 7.10367187 -12.24566406 6.37921875 -11.90234375 5.6328125 C-11.60835693 4.98199707 -11.31437012 4.33118164 -11.01147461 3.66064453 C-8.30430631 -0.78399915 -4.64047482 -0.17511226 0 0 Z M-6 11 C-8.2773501 13.81509993 -8.2773501 13.81509993 -8 17 C-7.01 16.67 -6.02 16.34 -5 16 C-5 14.35 -5 12.7 -5 11 C-5.33 11 -5.66 11 -6 11 Z " fill="#CE343A" transform="translate(269,256)"/>
<path d="M0 0 C5.97873264 0.11935764 5.97873264 0.11935764 7.08984375 1.23046875 C7.38772051 2.87374619 7.62845418 4.52747207 7.84375 6.18359375 C8.04194336 7.70146484 8.04194336 7.70146484 8.24414062 9.25 C8.37884766 10.31605469 8.51355469 11.38210938 8.65234375 12.48046875 C8.79091797 13.53105469 8.92949219 14.58164062 9.07226562 15.6640625 C10.28041033 25.05545339 10.28041033 25.05545339 10.08984375 29.23046875 C9.08984375 30.23046875 9.08984375 30.23046875 6.02734375 30.29296875 C5.05796875 30.27234375 4.08859375 30.25171875 3.08984375 30.23046875 C2.42984375 28.25046875 1.76984375 26.27046875 1.08984375 24.23046875 C-1.74089061 23.7287746 -1.74089061 23.7287746 -4.91015625 24.23046875 C-5.57015625 25.22046875 -6.23015625 26.21046875 -6.91015625 27.23046875 C-7.57015625 28.22046875 -8.23015625 29.21046875 -8.91015625 30.23046875 C-12.16015625 30.60546875 -12.16015625 30.60546875 -14.91015625 30.23046875 C-16.22567075 26.28392525 -15.24559267 25.22693278 -13.453125 21.5390625 C-12.91751953 20.42982422 -12.38191406 19.32058594 -11.83007812 18.17773438 C-11.25837891 17.01951172 -10.68667969 15.86128906 -10.09765625 14.66796875 C-9.53755859 13.50587891 -8.97746094 12.34378906 -8.40039062 11.14648438 C-3.15860649 0.38109976 -3.15860649 0.38109976 0 0 Z M0.08984375 10.23046875 C-2.2168754 12.94596029 -2.2168754 12.94596029 -1.53515625 15.41796875 C-1.32890625 16.01609375 -1.12265625 16.61421875 -0.91015625 17.23046875 C-0.25015625 17.23046875 0.40984375 17.23046875 1.08984375 17.23046875 C2.42289073 14.33860089 2.42289073 14.33860089 1.15234375 12.04296875 C0.80171875 11.44484375 0.45109375 10.84671875 0.08984375 10.23046875 Z " fill="#CE3439" transform="translate(346.91015625,255.76953125)"/>
<path d="M0 0 C1.23234375 -0.02578125 2.4646875 -0.0515625 3.734375 -0.078125 C7.46167326 0.26975617 9.30051074 0.99964894 12.25 3.25 C13.78214888 6.31429776 13.47938548 8.8665642 13.25 12.25 C11.84539303 15.12305972 10.50489001 16.99510999 8.25 19.25 C5.8671875 19.6640625 5.8671875 19.6640625 3.125 19.875 C2.21492187 19.94976562 1.30484375 20.02453125 0.3671875 20.1015625 C-0.68082031 20.17503906 -0.68082031 20.17503906 -1.75 20.25 C-1.95496094 20.88808594 -2.15992188 21.52617187 -2.37109375 22.18359375 C-2.64050781 23.00988281 -2.90992188 23.83617187 -3.1875 24.6875 C-3.45433594 25.51121094 -3.72117188 26.33492188 -3.99609375 27.18359375 C-4.75 29.25 -4.75 29.25 -5.75 30.25 C-7.74958364 30.29080783 -9.75045254 30.29254356 -11.75 30.25 C-12.97085918 26.68375007 -12.53624103 24.08395113 -11.7890625 20.42578125 C-11.56476563 19.31525391 -11.34046875 18.20472656 -11.109375 17.06054688 C-10.86703125 15.90619141 -10.6246875 14.75183594 -10.375 13.5625 C-10.14039063 12.39654297 -9.90578125 11.23058594 -9.6640625 10.02929688 C-7.62743405 0.09494731 -7.62743405 0.09494731 0 0 Z M-0.75 7.25 C-1.08 9.23 -1.41 11.21 -1.75 13.25 C0.69480079 13.06171228 0.69480079 13.06171228 3.25 12.25 C4.61020151 10.28241727 4.61020151 10.28241727 5.25 8.25 C4.18354885 6.95366379 4.18354885 6.95366379 1.6875 7.1875 C0.883125 7.208125 0.07875 7.22875 -0.75 7.25 Z " fill="#CE363B" transform="translate(208.75,255.75)"/>
<path d="M0 0 C0.03738281 0.94101563 0.07476562 1.88203125 0.11328125 2.8515625 C0.17902344 4.09679687 0.24476562 5.34203125 0.3125 6.625 C0.37050781 7.85476562 0.42851563 9.08453125 0.48828125 10.3515625 C1.3313413 16.36238758 4.0493746 20.40759452 8.11743164 24.80102539 C9.31470383 26.09473557 9.31470383 26.09473557 10.53616333 27.4145813 C14.33589155 31.4018133 18.20580037 35.31003622 22.12109375 39.18359375 C22.94706558 40.00577896 23.77303741 40.82796417 24.6240387 41.67506409 C27.22607505 44.26502195 29.83136686 46.85166498 32.4375 49.4375 C35.89739793 52.87082956 39.35398066 56.3074476 42.80859375 59.74609375 C43.6012413 60.53044296 44.39388885 61.31479218 45.21055603 62.12290955 C45.94214432 62.85119461 46.6737326 63.57947968 47.42749023 64.32983398 C48.07096909 64.96807602 48.71444794 65.60631805 49.37742615 66.26390076 C53.56042933 70.73957295 53.41637187 74.17743024 53.32421875 80.046875 C52.89670152 83.9408874 51.59840403 86.10463551 49 89 C48.46375 89.61875 47.9275 90.2375 47.375 90.875 C46 92 46 92 44 92 C45.00000628 89.30767541 45.96697899 87.04699143 47.625 84.6875 C49.53187259 80.96043086 50.20508982 77.99839049 49 74 C46.36563682 70.28979313 43.25297124 67.16969517 40 64 C38.79166667 62.79166667 37.58333333 61.58333333 36.375 60.375 C35.81167969 59.82199219 35.24835938 59.26898438 34.66796875 58.69921875 C32.92473144 56.92332126 31.30591964 55.07754251 29.6875 53.1875 C24.16982969 46.80382763 18.19617237 40.83017031 11.8125 35.3125 C4.40149688 28.90460235 -0.85314259 23.44057223 -4 14 C-4.09247381 12.52313889 -4.12999071 11.04224499 -4.125 9.5625 C-4.12757812 8.80066406 -4.13015625 8.03882813 -4.1328125 7.25390625 C-4.00084085 5.01426971 -3.7361409 3.11989942 -3 1 C-1 0 -1 0 0 0 Z " fill="#D85F63" transform="translate(92,212)"/>
<path d="M0 0 C3.125 2 3.125 2 5 4 C4.67 5.65 4.34 7.3 4 9 C1.6875 9.6875 1.6875 9.6875 -1 10 C-1.474375 9.505 -1.94875 9.01 -2.4375 8.5 C-2.953125 8.005 -3.46875 7.51 -4 7 C-7.14921909 7.23283149 -7.14921909 7.23283149 -10 8 C-11.42705634 13.30723432 -12.4002792 17.53891111 -11 23 C-7.31085253 22.55282671 -7.31085253 22.55282671 -4.4375 20.375 C-3.963125 19.92125 -3.48875 19.4675 -3 19 C-0.86254078 19.25146579 0.45925779 19.45925779 2 21 C2.5625 23.25 2.5625 23.25 2 26 C-0.88667033 28.83418541 -4.08306246 30.8586431 -8.171875 31.16015625 C-11.69024088 30.78318848 -15.12268015 30.10265681 -18 28 C-21.08713828 23.08966049 -20.57296401 17.58639906 -20 12 C-18.72130123 7.49549295 -16.75164212 4.71584964 -13.375 1.5 C-8.82928411 -0.52031817 -4.90069734 -0.8480408 0 0 Z " fill="#CF3A40" transform="translate(328,218)"/>
<path d="M0 0 C3 0.125 3 0.125 4 1.125 C4.39969412 3.64861613 4.75042817 6.15320241 5.0625 8.6875 C5.371875 11.141875 5.68125 13.59625 6 16.125 C8.64 10.845 11.28 5.565 14 0.125 C15.98 0.125 17.96 0.125 20 0.125 C18.60786668 3.76707493 16.99205189 7.19332672 15.1796875 10.64453125 C14.64472656 11.66611328 14.10976562 12.68769531 13.55859375 13.74023438 C13.00300781 14.79533203 12.44742188 15.85042969 11.875 16.9375 C11.31167969 18.01193359 10.74835938 19.08636719 10.16796875 20.19335938 C8.78080182 22.83838105 7.3914106 25.48220895 6 28.125 C3.69 28.125 1.38 28.125 -1 28.125 C-1.52963808 23.64682794 -2.04723882 19.1673472 -2.5625 14.6875 C-2.71396484 13.40810547 -2.86542969 12.12871094 -3.02148438 10.81054688 C-3.16005859 9.59560547 -3.29863281 8.38066406 -3.44140625 7.12890625 C-3.57232666 6.00299072 -3.70324707 4.8770752 -3.83813477 3.71704102 C-3.89155029 2.86166748 -3.94496582 2.00629395 -4 1.125 C-3 0.125 -3 0.125 0 0 Z " fill="#D34B50" transform="translate(203,217.875)"/>
<path d="M0 0 C7.26 0 14.52 0 22 0 C22 1.98 22 3.96 22 6 C19.45299007 7.60367292 18.38598454 8.06442578 15.35546875 7.55859375 C14.57816406 7.37425781 13.80085937 7.18992188 13 7 C12.87153687 7.88522339 12.87153687 7.88522339 12.74047852 8.78833008 C12.35064401 11.46347393 11.95661986 14.13798429 11.5625 16.8125 C11.42779297 17.74126953 11.29308594 18.67003906 11.15429688 19.62695312 C11.02216797 20.51962891 10.89003906 21.41230469 10.75390625 22.33203125 C10.57323608 23.56530151 10.57323608 23.56530151 10.38891602 24.82348633 C10 27 10 27 9 30 C7.02 30 5.04 30 3 30 C2.09791178 26.38883686 2.00381941 23.76993912 2.77734375 20.13671875 C2.96103516 19.25048828 3.14472656 18.36425781 3.33398438 17.45117188 C3.53314453 16.53916016 3.73230469 15.62714844 3.9375 14.6875 C4.13279297 13.75615234 4.32808594 12.82480469 4.52929688 11.86523438 C5.01086785 9.57483581 5.50133772 7.28672729 6 5 C3.69 5 1.38 5 -1 5 C-0.67 3.35 -0.34 1.7 0 0 Z " fill="#CE3339" transform="translate(241,218)"/>
<path d="M0 0 C1.2065625 0.0309375 1.2065625 0.0309375 2.4375 0.0625 C3.64500811 4.34875396 3.12300839 7.29007695 2 11.5625 C0.96820291 15.52312022 0.24628436 18.96283661 0.4375 23.0625 C3.0775 23.0625 5.7175 23.0625 8.4375 23.0625 C9.0625 25.4375 9.0625 25.4375 9.4375 28.0625 C7.4375 30.0625 7.4375 30.0625 3.7421875 30.2578125 C2.26549892 30.244509 0.78887642 30.22064835 -0.6875 30.1875 C-1.44160156 30.17847656 -2.19570313 30.16945312 -2.97265625 30.16015625 C-4.83607254 30.1365687 -6.69932593 30.10069719 -8.5625 30.0625 C-8.28298746 22.80914971 -7.23213091 15.92182456 -5.5625 8.875 C-5.38428711 8.12033447 -5.20607422 7.36566895 -5.02246094 6.58813477 C-3.42781168 0.08360516 -3.42781168 0.08360516 0 0 Z " fill="#D45054" transform="translate(295.5625,217.9375)"/>
<path d="M0 0 C5.3470641 3.49486792 9.69086182 7.87865415 14 12.5625 C17.84411747 10.99637807 20.15950209 8.54155879 23 5.5625 C29.39148437 -1.14076409 29.39148437 -1.14076409 34.953125 -1.7734375 C41.56061954 -1.85172535 47.73144436 -1.91784653 53 2.5625 C54.20703125 4.703125 54.20703125 4.703125 55 6.5625 C54.48953125 6.2015625 53.9790625 5.840625 53.453125 5.46875 C47.11625191 1.42393739 41.45203348 0.02740054 34 1.5625 C28.75727281 4.14330804 24.65909309 7.76565521 20.6875 12 C18 14.5625 18 14.5625 15.640625 15.0234375 C11.89550573 14.36970366 10.58714269 12.53787557 8.0625 9.75 C3.89508874 5.17311251 0.33338502 2.14280589 -5.89453125 1.05859375 C-12.40098766 0.92794201 -16.98586301 1.62132966 -22.21484375 5.6640625 C-25.86106462 9.54166281 -26.98609933 13.71286244 -27.01171875 18.96484375 C-26.6589099 23.12245396 -25.83046611 26.77953671 -24 30.5625 C-27.31495955 27.46140881 -28.79453947 25.54372651 -29.2734375 20.92578125 C-29.51312253 13.72601179 -28.83223196 9.04344255 -24 3.5625 C-16.92796745 -3.15593092 -8.62121161 -4.84021367 0 0 Z " fill="#FAEEEE" transform="translate(121,202.4375)"/>
<path d="M0 0 C2.93985474 2.16620876 4.81511101 4.54407379 6 8 C6.25 11.625 6.25 11.625 6 15 C4 17 4 17 1 18 C1.20625 16.9275 1.4125 15.855 1.625 14.75 C2.169649 11.21214132 2.169649 11.21214132 1.5 8.625 C-0.93425522 5.98789018 -3.54203677 6.18199806 -7 6 C-7.99 6.33 -8.98 6.66 -10 7 C-10.9739033 11.58098192 -10.9739033 11.58098192 -10.34375 16.125 C-8.50818407 18.68625478 -6.89075219 18.97673021 -3.875 19.75 C-2.96492188 19.99234375 -2.05484375 20.2346875 -1.1171875 20.484375 C-0.41851562 20.65453125 0.28015625 20.8246875 1 21 C-2.58876902 23.39251268 -3.76249208 23.55967086 -8 23 C-11.10913738 21.77570598 -13.61529036 20.35638768 -16 18 C-17.53111891 14.29543913 -17.24876588 11.09456989 -16.375 7.25 C-12.56364726 1.01324098 -7.04653351 -1.02062886 0 0 Z " fill="#D44D52" transform="translate(106,268)"/>
<path d="M0 0 C4.91527611 4.04144925 9.40995401 8.36421447 13.87573242 12.89746094 C16.53298093 15.57974776 19.23780205 18.13056879 22.125 20.5625 C25.94384881 23.82475546 29.18295167 27.47173413 32.4921875 31.2421875 C35.82726203 34.90973051 39.35052814 38.36988611 42.92675781 41.80151367 C47.58655791 46.35077107 50.46166338 50.24857485 51.0625 56.8828125 C50.91075977 62.02301274 48.91277555 65.85903056 45.75 69.8125 C41.44579779 73.23629721 37.5148593 75.37389643 31.9375 74.9375 C27.86339359 74.23862795 25.23904841 72.51026252 22 70 C25 70 25 70 27 71 C34.19593052 71.78573621 34.19593052 71.78573621 41.0546875 70.0234375 C44.73467999 67.03916498 46.63047885 63.92376662 47.51171875 59.3359375 C47.77904816 54.83292218 47.91289652 51.32501627 45.2872467 47.51403809 C44.54284836 46.74305786 43.79845001 45.97207764 43.03149414 45.17773438 C42.21246613 44.31865479 41.39343811 43.4595752 40.54959106 42.57446289 C39.70822601 41.72489014 38.86686096 40.87531738 38 40 C36.87294144 38.84649048 36.87294144 38.84649048 35.72311401 37.66967773 C33.43670293 35.3542393 31.12637893 33.06526045 28.80859375 30.78125 C27.10599426 29.09127229 25.40352384 27.40116455 23.70117188 25.7109375 C21.04961874 23.08438267 18.39646826 20.45947721 15.7409668 17.83691406 C13.15504205 15.28098954 10.57520704 12.71904489 7.99609375 10.15625 C7.19312363 9.3667395 6.3901535 8.577229 5.56285095 7.76379395 C4.8311116 7.03543335 4.09937225 6.30707275 3.34545898 5.55664062 C2.69753891 4.91617798 2.04961884 4.27571533 1.38206482 3.61584473 C0 2 0 2 0 0 Z " fill="#F6DBDC" transform="translate(97,233)"/>
<path d="M0 0 C4.57891185 4.09692113 6.63880575 7.16231115 7.21875 13.32421875 C7.55820196 22.56014071 4.9421103 29.40601446 -1.328125 36.27734375 C-6.59768759 39.67482489 -13.00434992 38.63235372 -19 38 C-19 37.01 -19 36.02 -19 35 C-18.14277344 35.08121094 -17.28554687 35.16242188 -16.40234375 35.24609375 C-9.80022043 35.73878988 -9.80022043 35.73878988 -3.68359375 33.6875 C1.83440036 28.3482746 4.13318289 22.63645746 4.4375 15 C4.31986817 9.47822332 3.11961643 6.48444862 0 2 C0 1.34 0 0.68 0 0 Z " fill="#FCF5F5" transform="translate(178,205)"/>
<path d="M0 0 C3.09322404 0.3344026 4.58887768 0.5595118 6.75 2.875 C9.58806561 7.69971154 9.66752269 12.72362718 8.57421875 18.08984375 C6.86816399 23.54293903 3.90562158 27.06674173 -1 30 C-5.28277216 31.27731801 -7.20580522 31.30885353 -11.375 29.6875 C-14 28 -14 28 -15 26 C-14.01 26.33 -13.02 26.66 -12 27 C-7.84767983 27.40434578 -4.13808375 27.404652 -0.1875 26 C3.67642001 22.46727313 5.61735205 18.57804222 6.38671875 13.39453125 C6.56320012 9.27460398 6.64563348 6.86084464 4.125 3.5 C3.42375 3.005 2.7225 2.51 2 2 C1.34 1.34 0.68 0.68 0 0 Z " fill="#FBF0F0" transform="translate(350,218)"/>
<path d="M0 0 C2.94244821 1.5877879 4.00694 3.1886869 5.3125 6.25 C4.54679687 5.70859375 4.54679687 5.70859375 3.765625 5.15625 C-2.57124809 1.11143739 -8.23546652 -0.28509946 -15.6875 1.25 C-20.93022719 3.83080804 -25.02840691 7.45315521 -29 11.6875 C-31.6875 14.25 -31.6875 14.25 -34.5625 14.625 C-35.26375 14.50125 -35.965 14.3775 -36.6875 14.25 C-35.96691406 13.69570312 -35.24632812 13.14140625 -34.50390625 12.5703125 C-30.74590678 9.474263 -27.46373792 5.99604677 -24.08984375 2.4921875 C-17.67933958 -3.49094973 -7.84937792 -3.65824219 0 0 Z " fill="#FDF7F7" transform="translate(170.6875,202.75)"/>
<path d="M0 0 C3.875 1.75 3.875 1.75 5 4 C5.37934197 9.02628116 5.02448301 11.92858056 2 16 C-0.49505962 18.49505962 -1.67328888 18.35948376 -5.125 18.625 C-6.03507813 18.69976562 -6.94515625 18.77453125 -7.8828125 18.8515625 C-8.93082031 18.92503906 -8.93082031 18.92503906 -10 19 C-10.20496094 19.63808594 -10.40992188 20.27617187 -10.62109375 20.93359375 C-10.89050781 21.75988281 -11.15992188 22.58617187 -11.4375 23.4375 C-11.70433594 24.26121094 -11.97117188 25.08492188 -12.24609375 25.93359375 C-13 28 -13 28 -14 29 C-15.99958364 29.04080783 -18.00045254 29.04254356 -20 29 C-20.33 28.34 -20.66 27.68 -21 27 C-19.02 27 -17.04 27 -15 27 C-14.67 23.7 -14.34 20.4 -14 17 C-13.26394531 16.98582031 -12.52789062 16.97164063 -11.76953125 16.95703125 C-7.04196159 16.72596113 -3.84567189 16.54719946 0.1875 13.9375 C2.69228239 9.87802509 2.53322082 7.72281301 2 3 C1.34 2.01 0.68 1.02 0 0 Z " fill="#FDF9F9" transform="translate(217,257)"/>
<path d="M0 0 C0.66 0 1.32 0 2 0 C2.25 2.25 2.25 2.25 2 5 C1.41992188 5.55171875 0.83984375 6.1034375 0.2421875 6.671875 C-2.73391936 9.76204868 -4.29263299 13.15411943 -6.125 17 C-6.47175781 17.7115625 -6.81851563 18.423125 -7.17578125 19.15625 C-9.17334764 23.25354794 -9.17334764 23.25354794 -11.015625 27.421875 C-12 29 -12 29 -15.625 30.25 C-16.73875 30.4975 -17.8525 30.745 -19 31 C-19.66 30.01 -20.32 29.02 -21 28 C-18.69 28 -16.38 28 -14 28 C-13.72816895 27.12134277 -13.45633789 26.24268555 -13.17626953 25.33740234 C-12.07269729 22.20626233 -10.78315441 19.50144947 -9.1796875 16.6015625 C-8.64472656 15.62832031 -8.10976562 14.65507812 -7.55859375 13.65234375 C-7.00300781 12.65332031 -6.44742188 11.65429688 -5.875 10.625 C-5.31167969 9.60277344 -4.74835938 8.58054688 -4.16796875 7.52734375 C-2.7830669 5.01574208 -1.39363545 2.50676281 0 0 Z " fill="#FBF1F1" transform="translate(223,218)"/>
<path d="M0 0 C0.66 0.33 1.32 0.66 2 1 C1.73087443 8.10491493 0.73644131 14.80983048 -1 21.6875 C-1.17821289 22.39455078 -1.35642578 23.10160156 -1.54003906 23.83007812 C-2.85711212 28.85711212 -2.85711212 28.85711212 -4 30 C-5.99958364 30.04080783 -8.00045254 30.04254356 -10 30 C-10.33 29.34 -10.66 28.68 -11 28 C-9.02 28 -7.04 28 -5 28 C-4.80664062 26.73285156 -4.61328125 25.46570313 -4.4140625 24.16015625 C-4.15119623 22.46091358 -3.88816664 20.76169617 -3.625 19.0625 C-3.49867188 18.23169922 -3.37234375 17.40089844 -3.2421875 16.54492188 C-2.37439781 10.96937315 -1.27575916 5.49685796 0 0 Z " fill="#F9E8E8" transform="translate(248,256)"/>
<path d="M0 0 C0.66 0 1.32 0 2 0 C2 1.98 2 3.96 2 6 C-0.54700993 7.60367292 -1.61401546 8.06442578 -4.64453125 7.55859375 C-5.42183594 7.37425781 -6.19914063 7.18992188 -7 7 C-7.12846313 7.88522339 -7.12846313 7.88522339 -7.25952148 8.78833008 C-7.64935599 11.46347393 -8.04338014 14.13798429 -8.4375 16.8125 C-8.57220703 17.74126953 -8.70691406 18.67003906 -8.84570312 19.62695312 C-8.97783203 20.51962891 -9.10996094 21.41230469 -9.24609375 22.33203125 C-9.42676392 23.56530151 -9.42676392 23.56530151 -9.61108398 24.82348633 C-10 27 -10 27 -11 30 C-12.98 30 -14.96 30 -17 30 C-17.33 29.34 -17.66 28.68 -18 28 C-16.02 28 -14.04 28 -12 28 C-11.96261719 27.34515625 -11.92523438 26.6903125 -11.88671875 26.015625 C-11.3638155 18.75649756 -9.94401344 12.00578429 -8 5 C-5.36 5 -2.72 5 0 5 C0 3.35 0 1.7 0 0 Z " fill="#FAEAEB" transform="translate(261,218)"/>
<path d="M0 0 C0.66 0 1.32 0 2 0 C2.50954907 3.33194499 3.00587014 6.66573634 3.5 10 C3.64308594 10.93457031 3.78617187 11.86914062 3.93359375 12.83203125 C4.73309765 18.27627211 5.35020336 23.49680435 5 29 C4.34 29.66 3.68 30.32 3 31 C0.4375 30.75 0.4375 30.75 -2 30 C-2.33 29.34 -2.66 28.68 -3 28 C-1.02 28 0.96 28 3 28 C2.90912109 27.3294458 2.81824219 26.6588916 2.72460938 25.96801758 C2.31300787 22.91662567 1.90645595 19.86458139 1.5 16.8125 C1.35691406 15.75740234 1.21382813 14.70230469 1.06640625 13.61523438 C0.93105469 12.59365234 0.79570312 11.57207031 0.65625 10.51953125 C0.53056641 9.58214111 0.40488281 8.64475098 0.27539062 7.67895508 C0.00995308 5.09682192 -0.04936064 2.59349011 0 0 Z " fill="#F9E9E9" transform="translate(279,218)"/>
<path d="M0 0 C0.33 0.66 0.66 1.32 1 2 C-1.44446031 7.28003428 -3.62910439 10.36522102 -9 13 C-14.96791579 14.7051188 -19.06746127 14.07403418 -24.46875 11.10546875 C-26 10 -26 10 -27 8 C-26.29746094 8.32097656 -25.59492187 8.64195312 -24.87109375 8.97265625 C-19.977228 10.72379461 -15.12175617 10.68613513 -10 10 C-5.99191139 8.07642401 -3.7339296 5.04583572 -2 1 C-1.34 0.67 -0.68 0.34 0 0 Z " fill="#FBF1F2" transform="translate(146,294)"/>
<path d="M0 0 C0.99 0.33 1.98 0.66 3 1 C3 1.99 3 2.98 3 4 C5.97 4.495 5.97 4.495 9 5 C9 5.66 9 6.32 9 7 C5.04 7 1.08 7 -3 7 C-3.66 12.28 -4.32 17.56 -5 23 C-5.99 23 -6.98 23 -8 23 C-7.01 17.06 -6.02 11.12 -5 5 C-3.68 5 -2.36 5 -1 5 C-0.67 3.35 -0.34 1.7 0 0 Z " fill="#F8E4E5" transform="translate(238,218)"/>
<path d="M0 0 C0.33 0 0.66 0 1 0 C1.30987436 6.50736147 0.73590171 12.54285934 -0.375 18.9375 C-0.50108643 19.68314209 -0.62717285 20.42878418 -0.75708008 21.19702148 C-1.39808473 24.7067519 -1.99607408 26.99411111 -4 30 C-7.125 30.1875 -7.125 30.1875 -10 30 C-10 29.34 -10 28.68 -10 28 C-8.35 28 -6.7 28 -5 28 C-4.87753906 26.72253906 -4.75507813 25.44507813 -4.62890625 24.12890625 C-4.0574248 18.98557317 -3.04638775 13.98822899 -1.9375 8.9375 C-1.6580957 7.6390918 -1.6580957 7.6390918 -1.37304688 6.31445312 C-0.91933733 4.20877549 -0.46023996 2.10425993 0 0 Z " fill="#FCF5F6" transform="translate(332,256)"/>
<path d="M0 0 C0.66 0.33 1.32 0.66 2 1 C2.50244141 3.0378418 2.50244141 3.0378418 2.8515625 5.69921875 C2.98046875 6.66150391 3.109375 7.62378906 3.2421875 8.61523438 C3.36851562 9.62908203 3.49484375 10.64292969 3.625 11.6875 C3.7590625 12.68201172 3.893125 13.67652344 4.03125 14.70117188 C5.29188762 24.36820427 5.29188762 24.36820427 5 29 C4 30 4 30 0.9375 30.0625 C-0.031875 30.041875 -1.00125 30.02125 -2 30 C-2.33 29.34 -2.66 28.68 -3 28 C-1.02 28 0.96 28 3 28 C2.90912109 27.22285645 2.81824219 26.44571289 2.72460938 25.64501953 C2.31522479 22.13848311 1.90759031 18.63174542 1.5 15.125 C1.35691406 13.90167969 1.21382813 12.67835938 1.06640625 11.41796875 C0.93105469 10.25136719 0.79570312 9.08476562 0.65625 7.8828125 C0.53056641 6.80402832 0.40488281 5.72524414 0.27539062 4.61376953 C0 2 0 2 0 0 Z " fill="#F9E7E7" transform="translate(268,256)"/>
<path d="M0 0 C0.66 0.33 1.32 0.66 2 1 C2.50244141 3.14550781 2.50244141 3.14550781 2.8515625 5.953125 C2.98046875 6.96503906 3.109375 7.97695313 3.2421875 9.01953125 C3.36851562 10.08558594 3.49484375 11.15164063 3.625 12.25 C3.82609375 13.82587891 3.82609375 13.82587891 4.03125 15.43359375 C5.18942222 24.75806195 5.18942222 24.75806195 5 29 C4 30 4 30 0.9375 30.0625 C-0.031875 30.041875 -1.00125 30.02125 -2 30 C-2.33 29.34 -2.66 28.68 -3 28 C-1.02 28 0.96 28 3 28 C2.86722656 27.23558594 2.73445313 26.47117187 2.59765625 25.68359375 C1.18497525 17.11470391 0.45531584 8.66298294 0 0 Z " fill="#F9E9EA" transform="translate(352,256)"/>
<path d="M0 0 C0.33 0 0.66 0 1 0 C1.5 2.1875 1.5 2.1875 1 5 C-1.8767863 7.83932814 -5.08860587 9.85905187 -9.171875 10.16015625 C-12.74707627 9.77709897 -15.94628862 8.90856961 -19 7 C-18.67 6.34 -18.34 5.68 -18 5 C-17.34 5.33 -16.68 5.66 -16 6 C-12.6141466 6.41948626 -9.37931569 6.49414522 -6 6 C-2.91201326 3.74942433 -2.91201326 3.74942433 -1 1 C-0.67 0.67 -0.34 0.34 0 0 Z " fill="#FBF0F0" transform="translate(329,239)"/>
<path d="M0 0 C3.3 0 6.6 0 10 0 C9.67 0.66 9.34 1.32 9 2 C6.67843403 2.40729228 4.3431213 2.74438677 2 3 C1.86722656 3.63808594 1.73445312 4.27617187 1.59765625 4.93359375 C1.42105469 5.75988281 1.24445313 6.58617187 1.0625 7.4375 C0.88847656 8.26121094 0.71445313 9.08492188 0.53515625 9.93359375 C0 12 0 12 -1 13 C-2.99958364 13.04080783 -5.00045254 13.04254356 -7 13 C-7.33 12.34 -7.66 11.68 -8 11 C-6.02 11 -4.04 11 -2 11 C-1.34 7.37 -0.68 3.74 0 0 Z " fill="#FDFAFA" transform="translate(229,273)"/>
<path d="M0 0 C2 3 2 3 1.57421875 6.50390625 C1.29141656 7.85949795 0.99533416 9.21237258 0.6875 10.5625 C0.4719043 11.59020508 0.4719043 11.59020508 0.25195312 12.63867188 C-0.82511295 17.6502259 -0.82511295 17.6502259 -2 20 C-3.98 20 -5.96 20 -8 20 C-8.33 19.34 -8.66 18.68 -9 18 C-7.02 18 -5.04 18 -3 18 C-3.04125 17.05125 -3.0825 16.1025 -3.125 15.125 C-3.13485106 10.31768314 -2.21777541 5.63999098 -1 1 C-0.67 0.67 -0.34 0.34 0 0 Z " fill="#F9E6E7" transform="translate(310,266)"/>
<path d="M0 0 C0.66 0.33 1.32 0.66 2 1 C1.67 2.98 1.34 4.96 1 7 C-5.6 7 -12.2 7 -19 7 C-19 6.34 -19 5.68 -19 5 C-13.06 5 -7.12 5 -1 5 C-0.67 3.35 -0.34 1.7 0 0 Z " fill="#FEFCFC" transform="translate(404,241)"/>
<path d="M0 0 C1.23556641 0.01740234 1.23556641 0.01740234 2.49609375 0.03515625 C3.32238281 0.04417969 4.14867187 0.05320313 5 0.0625 C5.63808594 0.07410156 6.27617187 0.08570313 6.93359375 0.09765625 C6.60359375 1.08765625 6.27359375 2.07765625 5.93359375 3.09765625 C5.02609375 2.97390625 4.11859375 2.85015625 3.18359375 2.72265625 C2.11109375 2.84640625 1.03859375 2.97015625 -0.06640625 3.09765625 C-1.44764588 5.06487633 -2.78128751 7.06633953 -4.06640625 9.09765625 C-6.69140625 10.03515625 -6.69140625 10.03515625 -9.06640625 10.09765625 C-9.72640625 9.76765625 -10.38640625 9.43765625 -11.06640625 9.09765625 C-11.06640625 8.43765625 -11.06640625 7.77765625 -11.06640625 7.09765625 C-9.08640625 7.09765625 -7.10640625 7.09765625 -5.06640625 7.09765625 C-4.75703125 6.12828125 -4.44765625 5.15890625 -4.12890625 4.16015625 C-2.73035354 0.12903372 -2.73035354 0.12903372 0 0 Z " fill="#F8E3E4" transform="translate(269.06640625,238.90234375)"/>
<path d="M0 0 C0.99 0.33 1.98 0.66 3 1 C1.4431828 4.1136344 -0.33168132 7.10578262 -2.0625 10.125 C-2.62807617 11.11306641 -2.62807617 11.11306641 -3.20507812 12.12109375 C-4.13623555 13.74767254 -5.06805482 15.37387242 -6 17 C-7.32 16.67 -8.64 16.34 -10 16 C-9.58105469 15.64292969 -9.16210938 15.28585938 -8.73046875 14.91796875 C-6.39609411 12.33065961 -4.90615953 9.38337212 -3.3125 6.3125 C-2.99216797 5.70599609 -2.67183594 5.09949219 -2.34179688 4.47460938 C-1.55628516 2.98565434 -0.77747058 1.49316953 0 0 Z " fill="#FBF1F1" transform="translate(154,235)"/>
<path d="M0 0 C2.39461403 0.95784561 3.73644222 1.57757289 5.12109375 3.796875 C6.08398756 6.21052881 6.2362251 7.91313999 6.1875 10.5 C6.18105469 11.2528125 6.17460938 12.005625 6.16796875 12.78125 C6.00273539 14.96386745 5.54166238 16.88535006 5 19 C5 19.99 5 20.98 5 22 C3.46875 20.89453125 3.46875 20.89453125 2 19 C2.03125 16.07421875 2.03125 16.07421875 2.5 12.6875 C3.06819528 7.3285214 3.13575173 4.39005242 0 0 Z " fill="#FAEDEE" transform="translate(108,270)"/>
<path d="M0 0 C1.23556641 0.01740234 1.23556641 0.01740234 2.49609375 0.03515625 C3.32238281 0.04417969 4.14867187 0.05320312 5 0.0625 C5.63808594 0.07410156 6.27617187 0.08570313 6.93359375 0.09765625 C6.60359375 1.08765625 6.27359375 2.07765625 5.93359375 3.09765625 C5.02609375 2.97390625 4.11859375 2.85015625 3.18359375 2.72265625 C2.11109375 2.84640625 1.03859375 2.97015625 -0.06640625 3.09765625 C-1.05640625 4.58265625 -1.05640625 4.58265625 -2.06640625 6.09765625 C-3.05640625 7.58265625 -3.05640625 7.58265625 -4.06640625 9.09765625 C-7.31640625 9.47265625 -7.31640625 9.47265625 -10.06640625 9.09765625 C-10.39640625 8.43765625 -10.72640625 7.77765625 -11.06640625 7.09765625 C-9.08640625 7.09765625 -7.10640625 7.09765625 -5.06640625 7.09765625 C-4.75703125 6.12828125 -4.44765625 5.15890625 -4.12890625 4.16015625 C-2.73035354 0.12903372 -2.73035354 0.12903372 0 0 Z " fill="#FAECED" transform="translate(258.06640625,276.90234375)"/>
<path d="M0 0 C0.66 0.33 1.32 0.66 2 1 C1.67 2.98 1.34 4.96 1 7 C-2.96 7 -6.92 7 -11 7 C-11 8.32 -11 9.64 -11 11 C-11.99 11 -12.98 11 -14 11 C-13.67 9.02 -13.34 7.04 -13 5 C-7.06 4.505 -7.06 4.505 -1 4 C-0.67 2.68 -0.34 1.36 0 0 Z " fill="#F8E3E3" transform="translate(408,218)"/>
<path d="M0 0 C1.23556641 0.01740234 1.23556641 0.01740234 2.49609375 0.03515625 C3.32238281 0.04417969 4.14867187 0.05320312 5 0.0625 C5.63808594 0.07410156 6.27617187 0.08570313 6.93359375 0.09765625 C6.60359375 1.08765625 6.27359375 2.07765625 5.93359375 3.09765625 C5.02609375 2.97390625 4.11859375 2.85015625 3.18359375 2.72265625 C2.11109375 2.84640625 1.03859375 2.97015625 -0.06640625 3.09765625 C-1.05640625 4.58265625 -1.05640625 4.58265625 -2.06640625 6.09765625 C-3.05640625 7.58265625 -3.05640625 7.58265625 -4.06640625 9.09765625 C-7.31640625 9.47265625 -7.31640625 9.47265625 -10.06640625 9.09765625 C-10.06640625 8.43765625 -10.06640625 7.77765625 -10.06640625 7.09765625 C-8.41640625 7.09765625 -6.76640625 7.09765625 -5.06640625 7.09765625 C-4.75703125 6.12828125 -4.44765625 5.15890625 -4.12890625 4.16015625 C-2.73035354 0.12903372 -2.73035354 0.12903372 0 0 Z " fill="#F8E2E3" transform="translate(342.06640625,276.90234375)"/>
<path d="M0 0 C1.98 0 3.96 0 6 0 C5 2 5 2 3 3 C2.09274566 5.11327425 2.09274566 5.11327425 1.375 7.5625 C1.11460937 8.38878906 0.85421875 9.21507812 0.5859375 10.06640625 C0.39257812 10.70449219 0.19921875 11.34257812 0 12 C-1.65 12.33 -3.3 12.66 -5 13 C-5.66 12.01 -6.32 11.02 -7 10 C-5.02 10 -3.04 10 -1 10 C-0.67 6.7 -0.34 3.4 0 0 Z " fill="#FCF4F4" transform="translate(366,236)"/>
<path d="M0 0 C0.66 0.33 1.32 0.66 2 1 C1.125 5.875 1.125 5.875 0 7 C-2.69654854 7.07319621 -5.36691458 7.09242537 -8.0625 7.0625 C-8.82111328 7.05798828 -9.57972656 7.05347656 -10.36132812 7.04882812 C-12.24091871 7.0370068 -14.12046899 7.01907078 -16 7 C-16 6.34 -16 5.68 -16 5 C-11.05 5 -6.1 5 -1 5 C-0.67 3.35 -0.34 1.7 0 0 Z " fill="#FEFCFC" transform="translate(303,241)"/>
<path d="M0 0 C3 1 3 1 4.25 3.1875 C5.19700772 6.73877895 5.10676574 8.47218421 4 12 C2.165988 14.80944221 0.14168085 17.41950381 -2 20 C-2.66 18.68 -3.32 17.36 -4 16 C-3.195625 15.319375 -2.39125 14.63875 -1.5625 13.9375 C1.79199668 10.09210137 2 6.975124 2 2 C1.34 2 0.68 2 0 2 C0 1.34 0 0.68 0 0 Z " fill="#FBEFEF" transform="translate(297,257)"/>
<path d="M0 0 C0.99 0.33 1.98 0.66 3 1 C-0.28446663 7.69058016 -0.28446663 7.69058016 -3.3125 9 C-6.65640272 9 -9.7268766 8.69239149 -13 8 C-13.33 7.34 -13.66 6.68 -14 6 C-10.04 6 -6.08 6 -2 6 C-1.34 4.02 -0.68 2.04 0 0 Z " fill="#FEFBFB" transform="translate(125,235)"/>
<path d="M0 0 C0.99 0.66 1.98 1.32 3 2 C3.5194969 7.28155179 3.48791111 10.73699754 0 15 C-0.99 15.33 -1.98 15.66 -3 16 C-3.73323796 18.01508358 -3.73323796 18.01508358 -4 20 C-4.8125 17.8125 -4.8125 17.8125 -5 15 C-4.195625 14.278125 -3.39125 13.55625 -2.5625 12.8125 C0.36928644 9.59468561 0.34771285 8.85435357 0.3125 4.6875 C0.23259126 3.12357176 0.1363128 1.56002428 0 0 Z " fill="#FAEBEC" transform="translate(382,220)"/>
<path d="M0 0 C0.33 0.66 0.66 1.32 1 2 C-0.093125 1.979375 -1.18625 1.95875 -2.3125 1.9375 C-5.94384191 1.81455548 -5.94384191 1.81455548 -9 3 C-9.33 6.3 -9.66 9.6 -10 13 C-12 11 -12 11 -12.4375 7.125 C-12.34104055 3.81523525 -12.11838617 3.14708585 -9.9375 0.4375 C-6.15235923 -1.41480293 -4.01912067 -1.08207095 0 0 Z " fill="#FBF1F1" transform="translate(105,272)"/>
<path d="M0 0 C1.65 0 3.3 0 5 0 C4.67 0.66 4.34 1.32 4 2 C3.34 2 2.68 2 2 2 C1.86722656 2.63808594 1.73445313 3.27617187 1.59765625 3.93359375 C1.42105469 4.75988281 1.24445313 5.58617187 1.0625 6.4375 C0.88847656 7.26121094 0.71445312 8.08492188 0.53515625 8.93359375 C0 11 0 11 -1 12 C-2.99958364 12.04080783 -5.00045254 12.04254356 -7 12 C-7.33 11.34 -7.66 10.68 -8 10 C-6.02 10 -4.04 10 -2 10 C-1.34 6.7 -0.68 3.4 0 0 Z " fill="#FDF6F7" transform="translate(283,274)"/>
<path d="M0 0 C0.99 0.33 1.98 0.66 3 1 C1.125 5.875 1.125 5.875 0 7 C-1.68608966 7.07205511 -3.37500659 7.08386068 -5.0625 7.0625 C-5.98160156 7.05347656 -6.90070313 7.04445312 -7.84765625 7.03515625 C-8.55792969 7.02355469 -9.26820313 7.01195312 -10 7 C-10 8.32 -10 9.64 -10 11 C-10.66 11 -11.32 11 -12 11 C-11.67 9.02 -11.34 7.04 -11 5 C-7.37 5 -3.74 5 0 5 C0 3.35 0 1.7 0 0 Z " fill="#FDF8F9" transform="translate(404,230)"/>
<path d="M0 0 C-3.75 3 -3.75 3 -6 3 C-7.26305335 8.07476794 -8.27036084 12.72796354 -8 18 C-8.66 17.67 -9.32 17.34 -10 17 C-10.37730162 10.83740688 -9.96435433 6.47265414 -7 1 C-4.53721199 -0.231394 -2.7204945 -0.07159196 0 0 Z " fill="#FCF2F3" transform="translate(324,223)"/>
<path d="M0 0 C0.66 0.33 1.32 0.66 2 1 C-0.31 4.96 -2.62 8.92 -5 13 C-5.99 12.67 -6.98 12.34 -8 12 C-7.41463247 8.33939179 -5.916761 6.45464836 -3.4375 3.75 C-2.79683594 3.04359375 -2.15617187 2.3371875 -1.49609375 1.609375 C-0.75552734 0.81273437 -0.75552734 0.81273437 0 0 Z " fill="#D14348" transform="translate(98,201)"/>
<path d="M0 0 C3.875 1.75 3.875 1.75 5 4 C5.3751455 8.97067782 5.15878799 12.05151502 2 16 C-0.1875 17.3125 -0.1875 17.3125 -2 18 C-2 17.01 -2 16.02 -2 15 C-1.34 14.443125 -0.68 13.88625 0 13.3125 C2.20414301 10.76395965 2.31600902 10.15840736 2.375 6.9375 C2.308696 2.95028543 2.308696 2.95028543 0 0 Z " fill="#F8E4E5" transform="translate(217,257)"/>
<path d="M0 0 C1 2 1 2 0.375 4.1875 C-1.38829835 7.79424662 -3.60121699 10.7805807 -6 14 C-7.32 13.67 -8.64 13.34 -10 13 C-9.34 13 -8.68 13 -8 13 C-7.79375 12.34 -7.5875 11.68 -7.375 11 C-5.48847129 6.88393737 -2.79432021 3.5412297 0 0 Z " fill="#FAECED" transform="translate(324,266)"/>
<path d="M0 0 C0.33 0.66 0.66 1.32 1 2 C-0.98 2.33 -2.96 2.66 -5 3 C-6.905247 8.10334017 -8.42589023 12.46342706 -8 18 C-8.66 17.67 -9.32 17.34 -10 17 C-10.37730162 10.83740688 -9.96435433 6.47265414 -7 1 C-4.53721199 -0.231394 -2.7204945 -0.07159196 0 0 Z " fill="#FAEBEC" transform="translate(349,223)"/>
<path d="M0 0 C0.66 0 1.32 0 2 0 C2 1.98 2 3.96 2 6 C-0.57213134 7.61949011 -1.67669159 8.04408751 -4.75 7.625 C-5.4925 7.41875 -6.235 7.2125 -7 7 C-7.66 8.32 -8.32 9.64 -9 11 C-8.67 9.02 -8.34 7.04 -8 5 C-5.36 5 -2.72 5 0 5 C0 3.35 0 1.7 0 0 Z " fill="#F3CECF" transform="translate(261,218)"/>
<path d="M0 0 C2.64 0 5.28 0 8 0 C8.33 1.65 8.66 3.3 9 5 C8.67 4.01 8.34 3.02 8 2 C6.35 2.33 4.7 2.66 3 3 C2.67 4.65 2.34 6.3 2 8 C1.01 8 0.02 8 -1 8 C-0.67 5.36 -0.34 2.72 0 0 Z " fill="#F5D8D9" transform="translate(285,261)"/>
<path d="M0 0 C0.66 0.33 1.32 0.66 2 1 C1.67 2.65 1.34 4.3 1 6 C-3.62 6 -8.24 6 -13 6 C-13 5.34 -13 4.68 -13 4 C-8.71 4 -4.42 4 0 4 C0 2.68 0 1.36 0 0 Z " fill="#FEFEFE" transform="translate(233,242)"/>
<path d="M0 0 C0.66 0.33 1.32 0.66 2 1 C1.67 4.96 1.34 8.92 1 13 C0.01 13.33 -0.98 13.66 -2 14 C-1.85795259 12.41632253 -1.71119847 10.83306682 -1.5625 9.25 C-1.48128906 8.36828125 -1.40007812 7.4865625 -1.31640625 6.578125 C-1.03761535 4.30649548 -0.61209423 2.20148177 0 0 Z " fill="#F9E9EA" transform="translate(248,256)"/>
<path d="M0 0 C0.9590625 0.4640625 0.9590625 0.4640625 1.9375 0.9375 C5.92049104 2.31935403 9.81650849 2.6536543 14 3 C14 3.99 14 4.98 14 6 C8.03790777 5.58882123 4.68411993 4.74729595 0 1 C0 0.67 0 0.34 0 0 Z " fill="#F7DFE0" transform="translate(119,302)"/>
<path d="M0 0 C0.33 0 0.66 0 1 0 C1.19401633 1.81181405 1.38004375 3.62448532 1.5625 5.4375 C1.66691406 6.44683594 1.77132813 7.45617187 1.87890625 8.49609375 C1.93884766 9.73552734 1.93884766 9.73552734 2 11 C1 12 1 12 -2.0625 12.0625 C-3.031875 12.041875 -4.00125 12.02125 -5 12 C-5.33 11.34 -5.66 10.68 -6 10 C-4.02 10 -2.04 10 0 10 C0 6.7 0 3.4 0 0 Z " fill="#FEFCFC" transform="translate(271,274)"/>
<path d="M0 0 C2.31 0 4.62 0 7 0 C7 0.99 7 1.98 7 3 C5.35 2.67 3.7 2.34 2 2 C1.67 3.98 1.34 5.96 1 8 C0.34 8 -0.32 8 -1 8 C-0.67 5.36 -0.34 2.72 0 0 Z " fill="#F8E2E3" transform="translate(206,261)"/>
<path d="M0 0 C2.31 0 4.62 0 7 0 C7 0.99 7 1.98 7 3 C5.35 3 3.7 3 2 3 C1.67 4.65 1.34 6.3 1 8 C0.34 8 -0.32 8 -1 8 C-0.67 5.36 -0.34 2.72 0 0 Z " fill="#F7E0E1" transform="translate(369,223)"/>
<path d="M0 0 C1.9375 0.6875 1.9375 0.6875 4 2 C4.875 4.5 4.875 4.5 5 7 C4.34 7.66 3.68 8.32 3 9 C0.375 8.625 0.375 8.625 -2 8 C1 6 1 6 3 6 C2.01 4.02 1.02 2.04 0 0 Z " fill="#FBF0F0" transform="translate(328,219)"/>
<path d="M0 0 C1.85064319 3.12296038 2.29356154 5.37940768 2 9 C1 10 1 10 -2.0625 10.0625 C-3.031875 10.041875 -4.00125 10.02125 -5 10 C-5.33 9.34 -5.66 8.68 -6 8 C-4.02 8 -2.04 8 0 8 C0 5.36 0 2.72 0 0 Z " fill="#FFFEFE" transform="translate(355,276)"/>
<path d="M0 0 C0.625 1.8125 0.625 1.8125 1 4 C0.01 5.485 0.01 5.485 -1 7 C-4.125 7.1875 -4.125 7.1875 -7 7 C-7.33 6.34 -7.66 5.68 -8 5 C-6.02 5 -4.04 5 -2 5 C-1.34 3.35 -0.68 1.7 0 0 Z " fill="#FEFCFC" transform="translate(245,279)"/>
<path d="M0 0 C0.33 0.66 0.66 1.32 1 2 C-1.39509338 4.89932357 -3.31245243 5.50168276 -7 6 C-7.66 5.01 -8.32 4.02 -9 3 C-6.69 3 -4.38 3 -2 3 C-2 2.34 -2 1.68 -2 1 C-1.34 0.67 -0.68 0.34 0 0 Z " fill="#FEFBFB" transform="translate(211,243)"/>
<path d="M0 0 C1.37432457 3.81756824 0.67975039 7.07255329 0 11 C-0.99 11 -1.98 11 -3 11 C-2.69217504 9.35328588 -2.37860766 7.70764424 -2.0625 6.0625 C-1.88847656 5.14597656 -1.71445313 4.22945312 -1.53515625 3.28515625 C-1 1 -1 1 0 0 Z " fill="#FDF6F6" transform="translate(233,230)"/>
<path d="M0 0 C0.33 0.99 0.66 1.98 1 3 C-0.62339805 4.70884005 -2.29319053 6.37446717 -4 8 C-4.66 8 -5.32 8 -6 8 C-4.73058503 4.08597051 -3.48832306 2.20927127 0 0 Z " fill="#CE353B" transform="translate(142,296)"/>
<path d="M0 0 C2.41103827 0.96441531 3.77404758 1.68797047 5.3125 3.8125 C6.17031512 6.54191176 5.75644808 8.27678692 5 11 C4.67 11 4.34 11 4 11 C3.79503906 10.37351562 3.59007813 9.74703125 3.37890625 9.1015625 C3.10949219 8.28429687 2.84007813 7.46703125 2.5625 6.625 C2.16224609 5.40683594 2.16224609 5.40683594 1.75390625 4.1640625 C1.04820271 1.98968201 1.04820271 1.98968201 0 0 Z " fill="#FCF5F6" transform="translate(108,270)"/>
<path d="M0 0 C0.33 0 0.66 0 1 0 C0.25 6.625 0.25 6.625 -2 10 C-2.66 10 -3.32 10 -4 10 C-3.52449439 8.51965236 -3.04448784 7.04074979 -2.5625 5.5625 C-2.29566406 4.73878906 -2.02882813 3.91507813 -1.75390625 3.06640625 C-1 1 -1 1 0 0 Z " fill="#FAEAEA" transform="translate(274,224)"/>
<path d="M0 0 C0.33 0 0.66 0 1 0 C1.3636198 4.24223102 0.5393228 6.58168085 -2 10 C-2.66 10 -3.32 10 -4 10 C-3.52449439 8.51965236 -3.04448784 7.04074979 -2.5625 5.5625 C-2.29566406 4.73878906 -2.02882813 3.91507812 -1.75390625 3.06640625 C-1 1 -1 1 0 0 Z " fill="#F9E9E9" transform="translate(263,262)"/>
<path d="M0 0 C0.66 0 1.32 0 2 0 C1.39009109 3.55780196 0.4216319 6.6828589 -1 10 C-1.66 10 -2.32 10 -3 10 C-2.39009109 6.44219804 -1.4216319 3.3171411 0 0 Z " fill="#F6DADB" transform="translate(346,262)"/>
<path d="M0 0 C0.66 0.33 1.32 0.66 2 1 C1.67 4.3 1.34 7.6 1 11 C0.34 11 -0.32 11 -1 11 C-1.14285714 3.57142857 -1.14285714 3.57142857 0 0 Z " fill="#FAEEEE" transform="translate(232,256)"/>
<path d="M0 0 C0.66 0.33 1.32 0.66 2 1 C2 1.66 2 2.32 2 3 C-2.38461538 6 -2.38461538 6 -5 6 C-3.63016497 2.83884224 -3.0109362 2.0072908 0 0 Z " fill="#CD3137" transform="translate(96,269)"/>
<path d="M0 0 C0.99 0 1.98 0 3 0 C3.33 0.99 3.66 1.98 4 3 C3.01 3.33 2.02 3.66 1 4 C0.01 5.485 0.01 5.485 -1 7 C-1.99 6.67 -2.98 6.34 -4 6 C-3.34 6 -2.68 6 -2 6 C-1.34 4.02 -0.68 2.04 0 0 Z " fill="#FBF1F1" transform="translate(139,245)"/>
<path d="M0 0 C0.33 0 0.66 0 1 0 C1.25 2.3125 1.25 2.3125 1 5 C-1 6.8125 -1 6.8125 -3 8 C-3.66 7.67 -4.32 7.34 -5 7 C-4.19152271 5.83054208 -3.37810888 4.66449539 -2.5625 3.5 C-2.11003906 2.8503125 -1.65757812 2.200625 -1.19140625 1.53125 C-0.79824219 1.0259375 -0.40507812 0.520625 0 0 Z " fill="#FDF9F9" transform="translate(329,239)"/>
<path d="M0 0 C-3.75 3 -3.75 3 -6 3 C-6 3.66 -6 4.32 -6 5 C-6.99 5.33 -7.98 5.66 -9 6 C-7.01260984 0.46369883 -5.82303895 -0.15323787 0 0 Z " fill="#F8E5E6" transform="translate(324,223)"/>
<path d="M0 0 C0.66 0.33 1.32 0.66 2 1 C0.41641358 4.16717283 -0.45263699 5.73268318 -3.6875 7.3125 C-4.450625 7.539375 -5.21375 7.76625 -6 8 C-4.55746343 4.63408134 -2.66735273 2.48952921 0 0 Z " fill="#CE3339" transform="translate(98,201)"/>
<path d="M0 0 C4.79280002 0.80904103 6.13520113 3.25984591 9 7 C6 7 6 7 4.39453125 5.46875 C3.87246094 4.8190625 3.35039063 4.169375 2.8125 3.5 C2.28269531 2.8503125 1.75289063 2.200625 1.20703125 1.53125 C0.80871094 1.0259375 0.41039063 0.520625 0 0 Z " fill="#F5D9DA" transform="translate(114,292)"/>
<path d="M0 0 C0.33 0.66 0.66 1.32 1 2 C0.01 3.485 0.01 3.485 -1 5 C-4.125 5.1875 -4.125 5.1875 -7 5 C-7 4.34 -7 3.68 -7 3 C-5.35 3 -3.7 3 -2 3 C-2 2.34 -2 1.68 -2 1 C-1.34 0.67 -0.68 0.34 0 0 Z " fill="#FEFCFC" transform="translate(339,281)"/>
<path d="M0 0 C0 0.99 0 1.98 0 3 C-1.65 3.33 -3.3 3.66 -5 4 C-5.66 3.01 -6.32 2.02 -7 1 C-3.535 0.505 -3.535 0.505 0 0 Z " fill="#FFFFFF" transform="translate(283,245)"/>
<path d="M0 0 C0 0.99 0 1.98 0 3 C-1.97746603 3.73080266 -3.98072489 4.39421747 -6 5 C-6.66 4.67 -7.32 4.34 -8 4 C-8 3.34 -8 2.68 -8 2 C-6.865625 1.855625 -5.73125 1.71125 -4.5625 1.5625 C-1.19222799 1.38828522 -1.19222799 1.38828522 0 0 Z " fill="#FFFFFF" transform="translate(266,244)"/>
<path d="M0 0 C0.66 0 1.32 0 2 0 C2 1.98 2 3.96 2 6 C0.02 6.99 0.02 6.99 -2 8 C-1.34 5.36 -0.68 2.72 0 0 Z " fill="#FDF8F8" transform="translate(261,218)"/>
</svg>
