<?xml version="1.0" encoding="UTF-8"?>
<svg version="1.1" xmlns="http://www.w3.org/2000/svg" width="500" height="500">
<path d="M0 0 C5.55988765 3.89041052 10.45697036 8.2287701 15.0625 13.19921875 C16.36029632 14.56716622 17.6789076 15.91811468 19.0625 17.19921875 C19.7225 17.19921875 20.3825 17.19921875 21.0625 17.19921875 C21.29195313 16.65007812 21.52140625 16.1009375 21.7578125 15.53515625 C27.64319318 4.9978579 38.37815097 -1.24227239 49.46484375 -4.93359375 C60.75771423 -7.65565374 72.42646332 -6.3545933 82.375 -0.36328125 C83.61312403 0.4778491 84.8433829 1.33076904 86.0625 2.19921875 C86.92875 2.77671875 87.795 3.35421875 88.6875 3.94921875 C95.40475246 10.31293161 98.99471239 17.64838386 99.46875 26.8671875 C100.00293087 49.17478549 100.00293087 49.17478549 93.0625 57.19921875 C92.29292969 58.11960938 91.52335938 59.04 90.73046875 59.98828125 C82.77132739 69.1175064 82.77132739 69.1175064 79.67993164 69.47387695 C76.49455209 69.50201495 73.31052257 69.52093079 70.125 69.51171875 C68.45920898 69.53588867 68.45920898 69.53588867 66.75976562 69.56054688 C65.69564453 69.56119141 64.63152344 69.56183594 63.53515625 69.5625 C62.55812744 69.56548096 61.58109863 69.56846191 60.57446289 69.5715332 C58.0625 69.19921875 58.0625 69.19921875 56.29467773 67.90698242 C54.3838165 65.25858252 53.83199199 62.33637839 53.0625 59.19921875 C49.91472817 61.2977333 49.402939 62.07897232 47.90625 65.375 C47.52339844 66.20322266 47.14054687 67.03144531 46.74609375 67.88476562 C46.35550781 68.75166016 45.96492188 69.61855469 45.5625 70.51171875 C40.32582057 81.97883692 40.32582057 81.97883692 38.0625 85.19921875 C35.6875 86.01171875 35.6875 86.01171875 33.0625 85.19921875 C31.58186709 83.23084793 30.41902068 81.22655843 29.2734375 79.046875 C28.12288961 76.87483998 28.12288961 76.87483998 25.0625 76.19921875 C24.69125 77.56046875 24.69125 77.56046875 24.3125 78.94921875 C23.02268658 82.30273364 21.74278958 83.87630111 19.0625 86.19921875 C16.0625 85.19921875 16.0625 85.19921875 14.62036133 82.91430664 C14.1333374 81.9268042 13.64631348 80.93930176 13.14453125 79.921875 C12.61279297 78.85130859 12.08105469 77.78074219 11.53320312 76.67773438 C10.71239258 74.98680664 10.71239258 74.98680664 9.875 73.26171875 C9.31619141 72.13830078 8.75738281 71.01488281 8.18164062 69.85742188 C4.0625 61.49340373 4.0625 61.49340373 4.0625 59.19921875 C0.57201683 62.16612945 -0.4223307 64.79767247 -2.9375 69.19921875 C-10.1975 69.19921875 -17.4575 69.19921875 -24.9375 69.19921875 C-24.9375 63.19921875 -24.9375 63.19921875 -23.9375 62.19921875 C-22.84308594 62.26882812 -21.74867188 62.3384375 -20.62109375 62.41015625 C-14.15115071 62.76252798 -14.15115071 62.76252798 -7.9375 61.19921875 C-4.73880456 57.91053992 -3.2637045 53.74616129 -1.61328125 49.54296875 C-1.06027344 48.43953125 -0.50726563 47.33609375 0.0625 46.19921875 C2.66723633 45.49023438 2.66723633 45.49023438 5.0625 45.19921875 C6.69864405 48.21414095 8.31932757 51.23711822 9.9375 54.26171875 C10.39769531 55.10927734 10.85789062 55.95683594 11.33203125 56.83007812 C13.33731557 60.59361899 15.16968173 64.10326468 16.1953125 68.2578125 C16.48148437 69.22847656 16.76765625 70.19914062 17.0625 71.19921875 C18.5475 71.69421875 18.5475 71.69421875 20.0625 72.19921875 C20.330625 71.10609375 20.59875 70.01296875 20.875 68.88671875 C22.54892358 63.68874551 22.54892358 63.68874551 25.0625 62.19921875 C27.5 62.01171875 27.5 62.01171875 30.0625 63.19921875 C31.71570067 65.73768171 32.92050779 68.39846691 34.0625 71.19921875 C34.7225 71.19921875 35.3825 71.19921875 36.0625 71.19921875 C36.41554199 70.48266113 36.76858398 69.76610352 37.13232422 69.02783203 C38.72988081 65.79121705 40.33360633 62.55769776 41.9375 59.32421875 C42.49308594 58.19628906 43.04867187 57.06835938 43.62109375 55.90625 C44.15605469 54.82988281 44.69101562 53.75351563 45.2421875 52.64453125 C45.73444824 51.64953613 46.22670898 50.65454102 46.73388672 49.62939453 C48.0625 47.19921875 48.0625 47.19921875 50.0625 45.19921875 C52 45.26171875 52 45.26171875 54.0625 46.19921875 C57.39803343 50.69493772 59.59627647 56.17904041 62.0625 61.19921875 C71.50479965 62.20685175 71.50479965 62.20685175 80.47265625 59.9921875 C82.33927556 58.17659195 83.67576003 56.40397949 85.0625 54.19921875 C85.62453125 53.34585938 86.1865625 52.4925 86.765625 51.61328125 C92.3942342 42.6443292 93.72242525 33.69888104 91.4140625 23.26953125 C88.33933859 14.83375025 83.25916012 9.10593895 75.4375 4.76171875 C67.7424927 1.23684682 59.5627962 -0.12010589 51.3125 2.26171875 C41.63808665 6.35778339 34.81542326 13.16294947 27.75 20.71679688 C27.08484375 21.40837891 26.4196875 22.09996094 25.734375 22.8125 C25.1475293 23.43938721 24.56068359 24.06627441 23.95605469 24.7121582 C21.57738548 26.58019252 20.09027121 27.12544921 17.0625 27.19921875 C15.0012207 25.75561523 15.0012207 25.75561523 12.98828125 23.5703125 C12.23740234 22.78205078 11.48652344 21.99378906 10.71289062 21.18164062 C9.94138672 20.34181641 9.16988281 19.50199219 8.375 18.63671875 C-0.72200217 8.80696748 -9.51763363 1.59731109 -23.3125 0.82421875 C-31.42668755 1.02041672 -39.84747107 5.0890914 -45.52734375 10.796875 C-51.56413624 17.51262214 -54.42348616 24.64786924 -55.25 33.57421875 C-54.3159576 44.40911054 -49.61988496 53.41960626 -41.3125 60.51171875 C-40.18831205 61.40857092 -39.06338294 62.30449535 -37.9375 63.19921875 C-33.68493216 67.23915819 -29.50920047 71.53645128 -25.9375 76.19921875 C-25.9375 76.85921875 -25.9375 77.51921875 -25.9375 78.19921875 C-25.35863037 78.4513916 -24.77976074 78.70356445 -24.18334961 78.96337891 C-21.66117948 80.35127163 -20.01195095 81.9133371 -18.00390625 83.97265625 C-17.27236328 84.71515625 -16.54082031 85.45765625 -15.78710938 86.22265625 C-15.03236328 86.99867188 -14.27761719 87.7746875 -13.5 88.57421875 C-8.14858104 94.15677793 -8.14858104 94.15677793 -2.33984375 99.23828125 C0.5085253 101.56329144 2.72272532 104.19488881 5.10839844 106.98291016 C8.61776134 110.96316958 12.41650205 114.65637003 16.1875 118.38671875 C16.97253906 119.16724609 17.75757813 119.94777344 18.56640625 120.75195312 C20.73002888 122.90280564 22.89591762 125.05134837 25.0625 127.19921875 C32.45215421 134.52760452 36.32615969 139.77420842 36.4375 150.57421875 C36.34603059 156.80023689 35.75281179 161.16260429 32.0625 166.19921875 C31.67707031 166.74964844 31.29164063 167.30007813 30.89453125 167.8671875 C26.67659477 173.39555084 21.6495366 176.31950343 15.0625 178.19921875 C4.85706577 179.30043248 -2.27128908 177.93401489 -10.28515625 171.61328125 C-16.87657725 166.21116253 -22.71018409 160.58856284 -27.97265625 153.8671875 C-28.62105469 153.31675781 -29.26945312 152.76632812 -29.9375 152.19921875 C-32.41322593 152.34176332 -32.41322593 152.34176332 -34.9375 153.19921875 C-42.1036937 153.8526385 -48.01495327 153.57382713 -53.9375 149.19921875 C-58.85604509 144.619451 -60.99834463 140.02451769 -61.3125 133.38671875 C-61.14719233 127.2060485 -59.43778889 123.01895487 -55.34765625 118.40625 C-50.43967721 114.03783737 -45.52539891 113.16346438 -39.05859375 112.9765625 C-33.44753061 113.37685111 -29.95037473 115.00094766 -26.15625 119.14453125 C-21.31891912 125.32810044 -20.20639572 130.4007731 -20.9375 138.19921875 C-22.4375 141.51171875 -22.4375 141.51171875 -23.9375 144.19921875 C-24.19034367 146.95068149 -24.19034367 146.95068149 -23.9375 149.19921875 C-23.34670654 149.46041504 -22.75591309 149.72161133 -22.1472168 149.99072266 C-19.80739211 151.27037487 -18.39053972 152.58761323 -16.58203125 154.53515625 C-15.95876953 155.18742188 -15.33550781 155.8396875 -14.69335938 156.51171875 C-13.41085667 157.87284725 -12.13465259 159.23994175 -10.86523438 160.61328125 C-5.35770989 166.34065574 0.43502149 170.08343531 8.5 170.76171875 C14.02524831 170.44239617 18.69601337 168.58438695 23.0625 165.19921875 C27.12344766 160.0547447 28.98997661 154.24093002 28.6015625 147.69921875 C26.37037177 137.35166754 17.09783778 128.63407242 9.35180664 121.98364258 C5.37150171 118.51420683 1.61091397 114.87729849 -2.10546875 111.12890625 C-2.74817215 110.4847879 -3.39087555 109.84066956 -4.05305481 109.17703247 C-6.07942915 107.1451287 -8.10228049 105.10976018 -10.125 103.07421875 C-11.49130162 101.70289098 -12.8578363 100.33179538 -14.22460938 98.9609375 C-16.73215569 96.44527862 -19.23836053 93.92830051 -21.74291992 91.40966797 C-22.5647879 90.5838195 -22.5647879 90.5838195 -23.40325928 89.74128723 C-24.77080799 88.36676123 -26.13730804 86.99119207 -27.50366211 85.61547852 C-29.69061702 83.44431864 -31.90491149 81.30579591 -34.13607788 79.18019104 C-36.30794676 77.10388404 -38.45968258 75.00714465 -40.61132812 72.90991211 C-41.73556203 71.82068951 -42.86602345 70.73785405 -44.00292969 69.66186523 C-53.76503215 60.40719879 -61.92268204 50.51194359 -63.17578125 36.54296875 C-63.46594233 25.42521776 -61.08945555 15.58903234 -53.7109375 7.05859375 C-39.77508126 -7.5525683 -17.28845909 -10.59837718 0 0 Z M-51.9375 125.19921875 C-54.15004845 128.79460998 -54.5089302 132.03594159 -53.9375 136.19921875 C-52.1553364 140.13912588 -50.25610124 143.36641797 -46.5625 145.69921875 C-41.5742117 146.6493689 -38.25106983 146.90652558 -33.6875 144.44921875 C-29.92193591 141.36830268 -28.31564322 139.63076092 -27.0625 134.88671875 C-26.90841307 130.34115435 -27.52960747 128.06644008 -29.9375 124.19921875 C-33.34682503 121.64597974 -36.77573166 120.41705031 -40.9375 119.63671875 C-45.29652866 120.45403662 -48.54588905 122.36769034 -51.9375 125.19921875 Z " fill="#D34B50" transform="translate(233.9375,166.80078125)"/>
<path d="M0 0 C3.5198582 1.43232325 5.06793624 3.08362961 7.125 6.25 C7.62257813 6.99765625 8.12015625 7.7453125 8.6328125 8.515625 C14.28131183 18.77975521 14.03432949 34.60525098 10.97265625 45.734375 C9.5369059 48.48656126 8.02912882 50.65394842 6 53 C5.23042969 53.92039063 4.46085937 54.84078125 3.66796875 55.7890625 C-4.30587177 64.93514775 -4.30587177 64.93514775 -7.43017578 65.22705078 C-8.4251709 65.21657715 -9.42016602 65.20610352 -10.4453125 65.1953125 C-11.52167969 65.18886719 -12.59804688 65.18242187 -13.70703125 65.17578125 C-14.83496094 65.15902344 -15.96289062 65.14226562 -17.125 65.125 C-18.82849609 65.11146484 -18.82849609 65.11146484 -20.56640625 65.09765625 C-23.37781299 65.07403098 -26.18880298 65.04109013 -29 65 C-29 64.67 -29 64.34 -29 64 C-28.39003174 63.99589111 -27.78006348 63.99178223 -27.15161133 63.98754883 C-24.37094208 63.95452425 -21.59243843 63.88387432 -18.8125 63.8125 C-17.85279297 63.80669922 -16.89308594 63.80089844 -15.90429688 63.79492188 C-10.04190706 63.63593671 -10.04190706 63.63593671 -5.078125 60.71484375 C-4.04945313 59.37099609 -4.04945313 59.37099609 -3 58 C-2.30777344 57.29359375 -1.61554688 56.5871875 -0.90234375 55.859375 C8.36124958 45.91436427 10.50641001 36.5649367 10.27734375 23.2734375 C9.87558934 14.12303109 5.24703236 7.24090466 0 0 Z " fill="#FCF5F6" transform="translate(321,171)"/>
<path d="M0 0 C0.68513672 -0.01224609 1.37027344 -0.02449219 2.07617188 -0.03710938 C3.86484112 -0.04237533 5.65298848 0.06549979 7.4375 0.1875 C8.0975 0.8475 8.7575 1.5075 9.4375 2.1875 C8.54289062 2.14109375 7.64828125 2.0946875 6.7265625 2.046875 C-3.94183869 1.72841526 -12.08102505 3.44087219 -20.5625 10.1875 C-27.51270339 17.17185673 -30.97066756 24.79570962 -31.875 34.5625 C-31.12286495 43.28726656 -28.26160357 49.58465509 -22.5625 56.1875 C-22.8925 56.8475 -23.2225 57.5075 -23.5625 58.1875 C-30.87301126 50.71084076 -33.71612373 43.21669576 -34.1875 32.75 C-33.91322868 23.45314791 -30.53107243 16.11849449 -24.3125 9.25 C-17.41510278 2.95304584 -9.18904687 0.00869352 0 0 Z " fill="#FCF4F4" transform="translate(210.5625,165.8125)"/>
<path d="M0 0 C2.01171875 1.0703125 2.01171875 1.0703125 3.01171875 3.0703125 C1.79484375 2.5959375 0.57796875 2.1215625 -0.67578125 1.6328125 C-9.89257622 -1.40074679 -19.13417203 -2.21749636 -27.98828125 2.0703125 C-35.62242085 6.48023876 -41.32254347 12.19638451 -47.30078125 18.58789062 C-47.9659375 19.27947266 -48.63109375 19.97105469 -49.31640625 20.68359375 C-49.90325195 21.31048096 -50.49009766 21.93736816 -51.09472656 22.58325195 C-53.36359068 24.36505332 -55.15653073 24.71071063 -57.98828125 25.0703125 C-58.64828125 24.0803125 -59.30828125 23.0903125 -59.98828125 22.0703125 C-59.25182373 22.15240967 -58.51536621 22.23450684 -57.7565918 22.3190918 C-54.09102328 21.98967877 -53.16682506 20.76437845 -50.6953125 18.08984375 C-49.89931641 17.25517578 -49.10332031 16.42050781 -48.28320312 15.56054688 C-46.64702016 13.79563197 -45.01158539 12.0300231 -43.37695312 10.26367188 C-31.17665987 -2.52458732 -16.86467905 -6.64739174 0 0 Z " fill="#FCF4F4" transform="translate(308.98828125,168.9296875)"/>
<path d="M0 0 C5.30784071 4.73402009 7.68089852 8.50934107 8.3203125 15.50390625 C8.54132451 22.92254273 8.46803421 28.90193377 4 35 C3.42185547 35.82564453 3.42185547 35.82564453 2.83203125 36.66796875 C-1.37663144 42.18417713 -6.41333582 45.14999263 -13 47 C-16.32421875 47.265625 -16.32421875 47.265625 -19.6875 47.25 C-20.80511719 47.25515625 -21.92273438 47.2603125 -23.07421875 47.265625 C-26 47 -26 47 -29 45 C-27.96101562 44.98582031 -26.92203125 44.97164063 -25.8515625 44.95703125 C-16.46796747 44.69456094 -8.23531536 44.12368816 -1.16796875 37.20703125 C3.38021871 31.66289034 5.61611296 25.58294568 6.375 18.5 C5.71182197 12.31033838 4.04553606 6.81611436 0 2 C0 1.34 0 0.68 0 0 Z " fill="#FAEEEE" transform="translate(262,298)"/>
<path d="M0 0 C2.0625 0.4375 2.0625 0.4375 4 1 C3.54947266 1.40686035 3.09894531 1.8137207 2.63476562 2.23291016 C0.85183576 4.16015722 -0.0667443 5.89078498 -1.15625 8.2734375 C-1.53910156 9.0984375 -1.92195313 9.9234375 -2.31640625 10.7734375 C-2.70699219 11.63195312 -3.09757812 12.49046875 -3.5 13.375 C-8.84732453 25.02263759 -8.84732453 25.02263759 -11 28 C-13.6875 28.3125 -13.6875 28.3125 -16 28 C-15.01 27.67 -14.02 27.34 -13 27 C-12.28546283 25.01659861 -11.63368622 23.01069297 -11 21 C-9.40648143 17.51539988 -7.66951094 14.10497562 -5.9375 10.6875 C-5.47794922 9.76904297 -5.01839844 8.85058594 -4.54492188 7.90429688 C-1.14055525 1.14055525 -1.14055525 1.14055525 0 0 Z " fill="#F9E7E8" transform="translate(283,224)"/>
<path d="M0 0 C3.4375 2 3.4375 2 6 4 C3 4 3 4 0.984375 3.640625 C-3.14874038 2.91805238 -6.14568777 2.63767703 -9.9375 4.625 C-13.13199004 7.10235963 -14.16697284 8.1125399 -15 12 C-15.38050898 16.47098052 -14.59096363 19.82372048 -13 24 C-15.42306346 21.68228712 -16.88587818 20.23997751 -17.203125 16.79296875 C-17.36684847 7.69267252 -17.36684847 7.69267252 -14 4 C-9.22929953 0.60546313 -5.99224187 -0.87159882 0 0 Z " fill="#FBEEEF" transform="translate(196,285)"/>
<path d="M0 0 C0.55429688 0.42152344 1.10859375 0.84304688 1.6796875 1.27734375 C2.40414062 1.82519531 3.12859375 2.37304688 3.875 2.9375 C4.59429687 3.48277344 5.31359375 4.02804687 6.0546875 4.58984375 C9.62873857 7.18067194 11.97853862 7.13487969 16.375 7.125 C17.51710937 7.12757813 18.65921875 7.13015625 19.8359375 7.1328125 C22.43236152 7.0238268 24.53624883 6.76461243 27 6 C27.33 6.66 27.66 7.32 28 8 C22.10117 10.65713063 15.88071556 11.25059604 9.6484375 9.2421875 C5.83520203 7.42840134 2.66789835 5.33487293 0 2 C0 1.34 0 0.68 0 0 Z " fill="#F8E2E3" transform="translate(176,310)"/>
<path d="M0 0 C0.99 0.33 1.98 0.66 3 1 C2.20890398 2.27118864 1.41709922 3.54193623 0.625 4.8125 C0.18414062 5.52019531 -0.25671875 6.22789062 -0.7109375 6.95703125 C-1.78188476 8.65432039 -2.88676239 10.33014358 -4 12 C-6.24658203 12.34057617 -6.24658203 12.34057617 -9.0078125 12.29296875 C-9.99394531 12.28330078 -10.98007813 12.27363281 -11.99609375 12.26367188 C-13.02863281 12.23853516 -14.06117188 12.21339844 -15.125 12.1875 C-16.68541016 12.16719727 -16.68541016 12.16719727 -18.27734375 12.14648438 C-20.85207627 12.11105228 -23.4257833 12.06165221 -26 12 C-25.67 11.34 -25.34 10.68 -25 10 C-18.73 10 -12.46 10 -6 10 C-4.7934375 7.8034375 -4.7934375 7.8034375 -3.5625 5.5625 C-1.125 1.125 -1.125 1.125 0 0 Z " fill="#FEFEFE" transform="translate(235,224)"/>
<path d="M0 0 C1.8125 0.1875 1.8125 0.1875 4 1 C6.30130902 4.42748152 8.00950331 8.04834527 9.6875 11.8125 C10.34298828 13.27623047 10.34298828 13.27623047 11.01171875 14.76953125 C11.33785156 15.50558594 11.66398437 16.24164063 12 17 C9 16 9 16 7.24609375 12.91015625 C6.63314061 11.63239493 6.03065074 10.34957333 5.4375 9.0625 C3.25342515 4.18471891 3.25342515 4.18471891 0 0 Z " fill="#F8E3E4" transform="translate(284,212)"/>
<path d="M0 0 C0.33 0 0.66 0 1 0 C1 5.94 1 11.88 1 18 C0.01 18.33 -0.98 18.66 -2 19 C-1.34 12.73 -0.68 6.46 0 0 Z " fill="#F8E4E5" transform="translate(332,195)"/>
<path d="M0 0 C0.99 0.33 1.98 0.66 3 1 C0.49399686 3.50600314 -1.18594425 3.97054791 -4.69921875 4.09765625 C-5.68535156 4.08605469 -6.67148438 4.07445312 -7.6875 4.0625 C-8.68136719 4.05347656 -9.67523438 4.04445313 -10.69921875 4.03515625 C-11.83810547 4.01775391 -11.83810547 4.01775391 -13 4 C-13 3.67 -13 3.34 -13 3 C-12.22914063 2.86722656 -11.45828125 2.73445313 -10.6640625 2.59765625 C-9.66117188 2.42105469 -8.65828125 2.24445313 -7.625 2.0625 C-6.62726563 1.88847656 -5.62953125 1.71445312 -4.6015625 1.53515625 C-2.03090344 1.12287938 -2.03090344 1.12287938 0 0 Z " fill="#FEFBFB" transform="translate(201,316)"/>
<path d="M0 0 C0.99 0.33 1.98 0.66 3 1 C2.23997083 2.31878578 1.46656347 3.6298684 0.6875 4.9375 C0.25824219 5.66839844 -0.17101562 6.39929688 -0.61328125 7.15234375 C-2 9 -2 9 -5 10 C-3.84414715 6.08788267 -2.64465038 3.1254959 0 0 Z " fill="#FBEFF0" transform="translate(235,224)"/>
<path d="M0 0 C0.66 0 1.32 0 2 0 C1.71872579 1.48117801 1.42466268 2.95993249 1.125 4.4375 C0.96257812 5.26121094 0.80015625 6.08492187 0.6328125 6.93359375 C0.31957031 7.95646484 0.31957031 7.95646484 0 9 C-0.99 9.495 -0.99 9.495 -2 10 C-1.125 2.25 -1.125 2.25 0 0 Z " fill="#F9E9E9" transform="translate(179,186)"/>
<path d="M0 0 C0.66 0.33 1.32 0.66 2 1 C-0.80804268 3.96404505 -3.18315774 6.44499019 -7 8 C-5.61918777 3.8575633 -3.40174442 2.67796901 0 0 Z " fill="#FDF8F8" transform="translate(262,334)"/>
</svg>
